<?xml version="1.0" encoding="UTF-8"?>
<svg width="85px" height="87px" viewBox="0 0 85 87" version="1.1" xmlns="http://www.w3.org/2000/svg" xmlns:xlink="http://www.w3.org/1999/xlink">
    <!-- Generator: Sketch 52.5 (67469) - http://www.bohemiancoding.com/sketch -->
    <title>002-medicine</title>
    <desc>Created with Sketch.</desc>
    <defs>
        <filter x="-24.8%" y="-59.6%" width="149.6%" height="222.1%" filterUnits="objectBoundingBox" id="filter-1">
            <feOffset dx="0" dy="10" in="SourceAlpha" result="shadowOffsetOuter1"></feOffset>
            <feGaussianBlur stdDeviation="16.5" in="shadowOffsetOuter1" result="shadowBlurOuter1"></feGaussianBlur>
            <feColorMatrix values="0 0 0 0 0.768627451   0 0 0 0 0.803921569   0 0 0 0 0.835294118  0 0 0 0.244310462 0" type="matrix" in="shadowBlurOuter1" result="shadowMatrixOuter1"></feColorMatrix>
            <feMerge>
                <feMergeNode in="shadowMatrixOuter1"></feMergeNode>
                <feMergeNode in="SourceGraphic"></feMergeNode>
            </feMerge>
        </filter>
    </defs>
    <g id="Versão-atual" stroke="none" stroke-width="1" fill="none" fill-rule="evenodd">
        <g id="04.2---Detalhe-de-Saúde" transform="translate(-248.000000, -137.000000)" fill="#FFFFFF">
            <g id="Group-11" filter="url(#filter-1)" transform="translate(15.000000, 134.000000)">
                <g id="Group-10" transform="translate(20.000000, 24.000000)">
                    <g id="002-medicine" transform="translate(245.000000, 0.000000)">
                        <path d="M5.49740933,6 C5.22271503,6 5,6.21841463 5,6.48780488 C5,6.75695122 5.22271503,6.97560976 5.49740933,6.97560976 C5.77185492,6.97560976 5.99481865,6.75695122 5.99481865,6.48780488 C5.99481865,6.21841463 5.77185492,6 5.49740933,6 Z" id="Fill-1"></path>
                        <g id="Group-5" stroke="#FFFFFF" stroke-width="0.5">
                            <path d="M9.47643523,14.9509756 L7.98420725,14.9509756 L7.98420725,13.4878049 C7.98420725,13.2184146 7.76149223,13 7.48679793,13 C7.21210363,13 6.9893886,13.2184146 6.9893886,13.4878049 L6.9893886,14.9509756 L5.49740933,14.9509756 C5.22271503,14.9509756 5,15.1693902 5,15.4387805 C5,15.7081707 5.22271503,15.9265854 5.49740933,15.9265854 L6.9893886,15.9265854 L6.9893886,17.39 C6.9893886,17.6591463 7.21210363,17.8778049 7.48679793,17.8778049 C7.76149223,17.8778049 7.98420725,17.6591463 7.98420725,17.39 L7.98420725,15.9265854 L9.47643523,15.9265854 C9.75088083,15.9265854 9.97384456,15.7081707 9.97384456,15.4387805 C9.97384456,15.1693902 9.75112953,14.9509756 9.47643523,14.9509756 Z" id="Fill-2"></path>
                            <path d="M23.3719585,15.7064634 C22.2724352,13.8388415 19.841285,13.1998171 17.9366425,14.2782927 L15.9161658,15.4223171 L15.9161658,11.1864024 C15.9161658,10.662622 15.7395855,10.1429268 15.4190052,9.7229878 L12.9319585,6.47128049 L12.9319585,5.08646341 C13.510943,4.88518293 13.9267772,4.34310976 13.9267772,3.70713415 L13.9267772,1.46341463 C13.9267772,0.656463415 13.2573886,0 12.4345492,0 L3.48167876,0 C2.6587772,0 1.98945078,0.656463415 1.98945078,1.46341463 L1.98945078,3.70713415 C1.98945078,4.34310976 2.4052228,4.88518293 2.98426943,5.08670732 L2.98426943,6.47128049 L0.497222798,9.72323171 C0.176580311,10.1429268 0,10.662622 0,11.1864024 L0,20.6331098 C0,21.9778659 1.11556477,23.0718902 2.4868601,23.0718902 L10.4803523,23.0718902 C11.5956684,24.9051829 14.0003316,25.5187805 15.8853264,24.4514634 L21.9156684,21.0370732 C23.8035233,19.9678659 24.4770155,17.5843293 23.3719585,15.7064634 Z M2.98426943,1.46341463 C2.98426943,1.19426829 3.20741969,0.975609756 3.48167876,0.975609756 L12.4345492,0.975609756 C12.7087461,0.975609756 12.9319585,1.19426829 12.9319585,1.46341463 L12.9319585,3.70713415 C12.9319585,3.97603659 12.7087461,4.19493902 12.4345492,4.19493902 L3.48167876,4.19493902 C3.20741969,4.19493902 2.98426943,3.97603659 2.98426943,3.70713415 L2.98426943,1.46341463 Z M1.29307772,10.3082317 L3.87948187,6.92646341 C3.9440829,6.84213415 3.97908808,6.73945122 3.97908808,6.63371951 L3.97908808,5.17054878 L11.9371399,5.17054878 L11.9371399,6.14615854 L7.46070466,6.14615854 C7.18601036,6.14615854 6.96329534,6.36457317 6.96329534,6.63396341 C6.96329534,6.90310976 7.18601036,7.12176829 7.46070466,7.12176829 L12.1858446,7.12176829 L14.6228394,10.3082317 C14.7821969,10.5166463 14.8809948,10.7662195 14.9109016,11.0239634 L1.00526425,11.0239634 C1.03517098,10.7659756 1.13403109,10.5166463 1.29307772,10.3082317 Z M2.4868601,22.0965244 C1.66420725,22.0965244 0.994818653,21.440061 0.994818653,20.6331098 L0.994818653,20.1405488 L10.0315026,20.1405488 C9.87363731,20.7729268 9.87463212,21.4484146 10.0553161,22.0965244 L2.4868601,22.0965244 Z M10.4215959,19.1696951 L0.994632124,19.1696951 L0.994632124,11.9993293 L14.9213472,11.9993293 L14.9213472,15.9853659 L11.9063005,17.6926829 C11.2774508,18.0490244 10.7694093,18.5558537 10.4215959,19.1696951 Z M15.3881658,23.6065854 C13.9605389,24.415 12.1365389,23.9369512 11.3117098,22.5359756 C10.4830259,21.1216463 10.985285,19.3409146 12.4037098,18.537561 L15.1035233,17.0088415 L18.0877306,22.0779268 L15.3881658,23.6065854 Z M21.4182591,20.1921951 L18.9494301,21.590122 L15.9649741,16.5210366 L18.4340518,15.1231707 C19.8624249,14.3145122 21.6856788,14.7932317 22.5104456,16.1942683 C23.338943,17.6021951 22.8351917,19.3897561 21.4182591,20.1921951 Z" id="Fill-4"></path>
                        </g>
                    </g>
                </g>
            </g>
        </g>
    </g>
</svg>