<?xml version="1.0" encoding="UTF-8"?>
<svg width="24px" height="24px" viewBox="0 0 24 24" version="1.1" xmlns="http://www.w3.org/2000/svg" xmlns:xlink="http://www.w3.org/1999/xlink">
    <!-- Generator: Sketch 52.5 (67469) - http://www.bohemiancoding.com/sketch -->
    <title>Card</title>
    <desc>Created with Sketch.</desc>
    <g id="Versão-atual" stroke="none" stroke-width="1" fill="none" fill-rule="evenodd">
        <g id="04.2---Detalhe-de-Saúde" transform="translate(-34.000000, -588.000000)" stroke="#0089EC">
            <g id="Group-23-Copy-11" transform="translate(35.000000, 582.000000)">
                <g id="Card" transform="translate(0.000000, 7.000000)">
                    <g id="Group-2">
                        <rect id="Rectangle-4" stroke-width="2" fill-opacity="0" fill="#005BAA" fill-rule="nonzero" stroke-linecap="round" stroke-linejoin="round" x="0" y="0" width="22" height="22" rx="4.85999974"></rect>
                        <path d="M16.0190747,12.4194231 C16.4582228,12.4194231 16.8314931,12.5622101 17.1388968,12.8477885 C17.4463005,13.1333668 17.6,13.4876902 17.6,13.9107692 C17.6,14.3338483 17.4463005,14.6987485 17.1388968,15.0054808 C16.8314931,15.3122131 16.4582228,15.4655769 16.0190747,15.4655769 C15.2944803,15.4655769 14.8004461,15.1376956 14.5369573,14.4819231 L12.8572242,14.4819231 C12.5937353,14.4819231 12.4290572,14.3655781 12.363185,14.1328846 L11.8362099,12.6415385 L10.1894127,18.1309615 C10.1235405,18.363655 9.95886245,18.48 9.69537359,18.48 C9.37699137,18.48 9.2123133,18.3530782 9.16839849,18.0992308 L7.48866538,8.32615385 L6.00654793,14.1011538 C5.94067571,14.3550013 5.7650191,14.4819231 5.47957284,14.4819231 L0,14.4819231 L0,13.4665385 L5.05140557,13.4665385 L7.06049812,5.6925 C7.14832774,5.41749862 7.32398435,5.28 7.58747321,5.28 C7.89487689,5.28 8.07053349,5.42807544 8.11444831,5.72423077 L9.82711736,15.6876923 L11.3092348,10.7694231 C11.375107,10.5367296 11.5397851,10.4203846 11.803274,10.4203846 C12.0667628,10.4203846 12.2314409,10.5367296 12.2973131,10.7694231 L13.2524555,13.4665385 L14.5040213,13.4665385 C14.6138083,13.1703831 14.8059328,12.9218279 15.0804003,12.7208654 C15.3548679,12.5199028 15.6677562,12.4194231 16.0190747,12.4194231 Z" id="" stroke-width="0.5" fill="#0089EC"></path>
                    </g>
                </g>
            </g>
        </g>
    </g>
</svg>