<?xml version="1.0" encoding="UTF-8"?>
<svg width="95px" height="95px" viewBox="0 0 95 95" version="1.1" xmlns="http://www.w3.org/2000/svg" xmlns:xlink="http://www.w3.org/1999/xlink">
    <!-- Generator: Sketch 52.2 (67145) - http://www.bohemiancoding.com/sketch -->
    <title>Group</title>
    <desc>Created with Sketch.</desc>
    <defs>
        <polygon id="path-1" points="0.000120253165 0.136113445 94.8633122 0.136113445 94.8633122 94.6008403 0.000120253165 94.6008403"></polygon>
    </defs>
    <g id="Versão-atual" stroke="none" stroke-width="1" fill="none" fill-rule="evenodd">
        <g id="05---Login" transform="translate(-40.000000, -99.000000)">
            <g id="Group" transform="translate(40.000000, 99.000000)">
                <g id="Group-3" transform="translate(0.000000, 0.263046)">
                    <mask id="mask-2" fill="white">
                        <use xlink:href="#path-1"></use>
                    </mask>
                    <g id="Clip-2"></g>
                    <path d="M94.8634325,47.3685168 C94.8634325,73.4543992 73.6275253,94.6010798 47.4315759,94.6010798 C21.2356266,94.6010798 0.000120253165,73.4543992 0.000120253165,47.3685168 C0.000120253165,21.2826345 21.2356266,0.135953782 47.4315759,0.135953782 C73.6275253,0.135953782 94.8634325,21.2826345 94.8634325,47.3685168" id="Fill-1" fill="#1EADC9" mask="url(#mask-2)"></path>
                </g>
                <path d="M29.3372025,41.2410966 C21.8706835,41.2410966 15.7958945,36.0715798 15.7958945,29.7173571 L15.7958945,26.0063697 L18.6018017,26.0063697 L18.6018017,29.7173571 C18.6018017,34.5308235 23.4175401,38.446979 29.3372025,38.446979 C35.256865,38.446979 40.0726034,34.5308235 40.0726034,29.7173571 L40.0726034,11.4705714 L42.8785105,11.4705714 L42.8785105,29.7173571 C42.8785105,36.0715798 36.8041224,41.2410966 29.3372025,41.2410966" id="Fill-4" fill="#0F98B3"></path>
                <path d="M49.064654,91.1859496 L30.660308,91.1859496 C28.0147384,91.1859496 25.8501814,89.0304874 25.8501814,86.3960336 L25.8501814,51.802063 C25.8501814,49.1676092 28.0147384,47.0121471 30.660308,47.0121471 L49.064654,47.0121471 C51.7102236,47.0121471 53.8747806,49.1676092 53.8747806,51.802063 L53.8747806,86.3960336 C53.8747806,89.0304874 51.7102236,91.1859496 49.064654,91.1859496" id="Fill-6" fill="#0F98B3"></path>
                <path d="M50.315327,86.3960336 L50.315327,51.802063 C50.315327,49.1676092 48.15077,47.0121471 45.5052004,47.0121471 L14.2037025,47.0121471 C11.5581329,47.0121471 9.39357595,49.1676092 9.39357595,51.802063 L9.39357595,75.8510336 C14.4217616,82.5613067 21.1988291,87.8956765 29.0521624,91.1859496 L45.5052004,91.1859496 C48.15077,91.1859496 50.315327,89.0304874 50.315327,86.3960336" id="Fill-8" fill="#004E89"></path>
                <path d="M12.2551203,25.3279181 C10.1583059,25.3279181 8.27474051,24.4186324 6.96638608,22.9812584 C6.68499367,23.4382962 6.41201899,23.9001239 6.14625949,24.3671408 C7.19807384,24.9742626 8.41543671,25.3279181 9.71657595,25.3279181 L12.2551203,25.3279181 Z" id="Fill-10" fill="#0F98B3"></path>
                <path d="M29.5583481,18.2095042 C29.5583481,23.6751975 25.0925464,28.1218361 19.6037911,28.1218361 L22.1427363,28.1218361 C27.6310907,28.1218361 32.0968924,23.6751975 32.0968924,18.2095042 L32.0968924,2.92368487 C31.2386857,3.21547059 30.3933059,3.53240336 29.5583481,3.87128992 L29.5583481,18.2095042 Z" id="Fill-12" fill="#0F98B3"></path>
                <path d="M26.7524409,18.2095042 C26.7524409,22.1344412 23.5456899,25.3277185 19.6037911,25.3277185 L22.1427363,25.3277185 C26.0842342,25.3277185 29.2909852,22.1344412 29.2909852,18.2095042 L29.2909852,3.97986134 C28.4315759,4.33431513 27.5849937,4.71152101 26.7524409,5.11387395 L26.7524409,18.2095042 Z" id="Fill-14" fill="#222F3A"></path>
                <path d="M12.2551203,28.1220357 C9.66005696,28.1220357 7.29507806,27.1273298 5.52134388,25.5019517 C5.28484599,25.9446197 5.05516245,26.3912794 4.83269409,26.8423298 C6.2769346,27.6554181 7.94244093,28.1220357 9.71657595,28.1220357 L12.2551203,28.1220357 Z" id="Fill-16" fill="#222F3A"></path>
                <path d="M29.5583481,18.2095042 L29.5583481,3.87128992 C29.4689599,3.90721429 29.3799726,3.94313866 29.2909852,3.97986134 L29.2909852,18.2095042 C29.2909852,22.1344412 26.0842342,25.3277185 22.1427363,25.3277185 L19.6037911,25.3277185 L12.2551203,25.3277185 L9.71657595,25.3277185 C8.41543671,25.3277185 7.19807384,24.9744622 6.14625949,24.3669412 C5.9326097,24.7421513 5.72457173,25.1205546 5.52134388,25.5017521 C7.29507806,27.1271303 9.66005696,28.1218361 12.2551203,28.1218361 L19.6037911,28.1218361 C25.0925464,28.1218361 29.5583481,23.6751975 29.5583481,18.2095042" id="Fill-18" fill="#222F3A"></path>
                <path d="M28.1166329,55.6186282 L28.1166329,83.310729 C28.1166329,84.7225567 30.31927,84.7245525 30.31927,83.310729 L30.31927,55.6186282 C30.31927,54.2071996 28.1166329,54.2048046 28.1166329,55.6186282" id="Fill-20" fill="#238CCC"></path>
                <path d="M41.1428966,54.2110714 C38.3622426,57.762395 33.107981,59.3087395 28.7516097,59.2556513 C24.8782553,59.2081513 19.7498586,58.1583613 17.5712722,54.5826891 C16.837327,53.3772269 14.9313143,54.4785084 15.6692679,55.6895588 C18.1713354,59.7965126 23.5923481,61.2414706 28.1130654,61.4310714 C33.1757236,61.6438235 39.454943,59.9066807 42.7005759,55.7622059 C43.5623903,54.6617227 42.0143312,53.0986134 41.1428966,54.2110714" id="Fill-22" fill="#238CCC"></path>
                <path d="M41.1428966,61.4317899 C38.4436139,64.8022941 32.6931076,64.9507815 28.7516097,64.9380084 C25.3472426,64.9268319 19.6448376,65.1435756 17.5712722,61.8034076 C16.8277068,60.6047311 14.9212932,61.7052143 15.6692679,62.9102773 C18.1528966,66.9102563 23.9214409,67.0671261 28.1130654,67.1258025 C32.7720738,67.1908655 39.5018418,66.976916 42.7005759,62.9829244 C43.5756181,61.8900252 42.0271582,60.3277143 41.1428966,61.4317899" id="Fill-24" fill="#238CCC"></path>
                <path d="M41.1428966,69.2266996 C39.8930654,70.7355231 37.7593734,70.72275 35.9447532,70.7131702 C33.5449008,70.7003971 31.1526646,70.4525189 28.7516097,70.4764685 C26.5962722,70.4980231 24.4581709,70.7594727 22.3076435,70.8660483 C20.7062722,70.9458803 18.5521371,71.1338845 17.5712722,69.5979181 C16.8132764,68.4104181 14.9060612,69.5093046 15.6692679,70.705187 C18.1637194,74.6113634 24.3395211,72.7840105 28.1130654,72.6818256 C31.0969473,72.6007962 34.0764198,73.0123298 37.0578966,72.8933803 C39.1234451,72.8107542 41.314057,72.4519097 42.7005759,70.7774349 C43.5960612,69.6965105 42.0459979,68.1365945 41.1428966,69.2266996" id="Fill-26" fill="#238CCC"></path>
                <path d="M17.3991498,82.240542 C20.1196772,78.8269286 25.7631582,78.3866555 29.7908376,78.4074118 C33.2954156,78.4257731 38.8695506,78.4712773 40.9707743,81.8689244 C41.7127363,83.0691975 43.6187489,81.9683151 42.8727785,80.7620546 C40.3867447,76.7409202 34.6903523,76.3074328 30.428981,76.2224118 C25.6837911,76.1278109 19.0530316,76.6606891 15.8414705,80.6894076 C14.9692342,81.7839034 16.5180949,83.3462143 17.3991498,82.240542" id="Fill-28" fill="#238CCC"></path>
                <path d="M45.9405169,10.0828529 C45.9405169,12.3935882 44.0597574,14.2668445 41.7392722,14.2668445 C39.4183861,14.2668445 37.5372257,12.3935882 37.5372257,10.0828529 C37.5372257,7.77211765 39.4183861,5.89886134 41.7392722,5.89886134 C44.0597574,5.89886134 45.9405169,7.77211765 45.9405169,10.0828529" id="Fill-30" fill="#0F98B3"></path>
                <path d="M85.7062342,75.5282731 L85.7062342,26.0899538 L85.7062342,23.5952059 C85.7062342,20.9603529 83.5420781,18.8052899 80.8961076,18.8052899 L43.290538,18.8052899 C40.6449684,18.8052899 38.4804114,20.9603529 38.4804114,23.5952059 L38.4804114,26.0899538 L38.4804114,80.9408782 L38.4804114,83.3027059 C38.4804114,85.9371597 40.6449684,88.0926218 43.290538,88.0926218 L71.913597,88.0926218 C77.3053481,84.8502479 81.9948207,80.5688613 85.7062342,75.5282731" id="Fill-32" fill="#0F98B3"></path>
                <path d="M77.4145781,88.0924622 L39.8090084,88.0924622 C37.1634388,88.0924622 34.9988819,85.937 34.9988819,83.3025462 L34.9988819,26.0897941 C34.9988819,23.4553403 37.1634388,21.2998782 39.8090084,21.2998782 L77.4145781,21.2998782 C80.0601477,21.2998782 82.2247046,23.4553403 82.2247046,26.0897941 L82.2247046,83.3025462 C82.2247046,85.937 80.0601477,88.0924622 77.4145781,88.0924622" id="Fill-34" fill="#CC1D19"></path>
                <path d="M26.7986582,41.2410966 C19.3317384,41.2410966 13.2573502,36.0715798 13.2573502,29.7173571 L13.2573502,26.0063697 L16.0632574,26.0063697 L16.0632574,29.7173571 C16.0632574,34.5308235 20.8789958,38.446979 26.7986582,38.446979 C32.7183207,38.446979 37.5340591,34.5308235 37.5340591,29.7173571 L37.5340591,11.4705714 L40.3399662,11.4705714 L40.3399662,29.7173571 C40.3399662,36.0715798 34.2655781,41.2410966 26.7986582,41.2410966" id="Fill-36" fill="#222F3A"></path>
                <path d="M77.4145781,85.730834 L39.8090084,85.730834 C37.1634388,85.730834 34.9988819,83.5753718 34.9988819,80.9409181 L34.9988819,22.7801618 C34.9988819,20.145708 37.1634388,17.9902458 39.8090084,17.9902458 L77.4145781,17.9902458 C80.0601477,17.9902458 82.2247046,20.145708 82.2247046,22.7801618 L82.2247046,80.9409181 C82.2247046,83.5753718 80.0601477,85.730834 77.4145781,85.730834" id="Fill-38" fill="#FA6B64"></path>
                <path d="M77.4145781,85.730834 L39.8090084,85.730834 C37.1634388,85.730834 34.9988819,83.5753718 34.9988819,80.9409181 L34.9988819,24.8342374 C34.9988819,22.1993845 37.1634388,20.0443214 39.8090084,20.0443214 L77.4145781,20.0443214 C80.0601477,20.0443214 82.2247046,22.1993845 82.2247046,24.8342374 L82.2247046,80.9409181 C82.2247046,83.5753718 80.0601477,85.730834 77.4145781,85.730834" id="Fill-40" fill="#F44338"></path>
                <path d="M75.193903,82.1383971 L42.1090506,82.1383971 C40.3758017,82.1383971 38.9580169,80.7261702 38.9580169,79.0006029 L38.9580169,28.7950987 C38.9580169,27.0695315 40.3758017,25.6573046 42.1090506,25.6573046 L75.193903,25.6573046 C76.9271519,25.6573046 78.3449367,27.0695315 78.3449367,28.7950987 L78.3449367,79.0006029 C78.3449367,80.7261702 76.9271519,82.1383971 75.193903,82.1383971" id="Fill-42" fill="#98A3AF"></path>
                <path d="M75.193903,78.5459601 L42.1090506,78.5459601 C40.3758017,78.5459601 38.9580169,77.1337332 38.9580169,75.408166 L38.9580169,25.2026618 C38.9580169,23.4770945 40.3758017,22.0648676 42.1090506,22.0648676 L75.193903,22.0648676 C76.9271519,22.0648676 78.3449367,23.4770945 78.3449367,25.2026618 L78.3449367,75.408166 C78.3449367,77.1337332 76.9271519,78.5459601 75.193903,78.5459601" id="Fill-44" fill="#F1F2F4"></path>
                <path d="M56.535462,34.5052773 L43.4410949,34.5052773 C42.7063481,34.5052773 42.1050823,33.9065378 42.1050823,33.1748782 C42.1050823,32.4428193 42.7063481,31.8440798 43.4410949,31.8440798 L56.535462,31.8440798 C57.2702089,31.8440798 57.8714747,32.4428193 57.8714747,33.1748782 C57.8714747,33.9065378 57.2702089,34.5052773 56.535462,34.5052773" id="Fill-46" fill="#BCC1C6"></path>
                <path d="M56.535462,40.7589118 L43.4410949,40.7589118 C42.7063481,40.7589118 42.1050823,40.1601723 42.1050823,39.4285126 C42.1050823,38.6964538 42.7063481,38.0977143 43.4410949,38.0977143 L56.535462,38.0977143 C57.2702089,38.0977143 57.8714747,38.6964538 57.8714747,39.4285126 C57.8714747,40.1601723 57.2702089,40.7589118 56.535462,40.7589118" id="Fill-48" fill="#BCC1C6"></path>
                <path d="M73.1665549,47.0123466 L60.0721878,47.0123466 C59.3374409,47.0123466 58.7361751,46.4136071 58.7361751,45.6819475 C58.7361751,44.9498887 59.3374409,44.3511492 60.0721878,44.3511492 L73.1665549,44.3511492 C73.9013017,44.3511492 74.5025675,44.9498887 74.5025675,45.6819475 C74.5025675,46.4136071 73.9013017,47.0123466 73.1665549,47.0123466" id="Fill-50" fill="#BCC1C6"></path>
                <path d="M73.1665549,53.2786345 L60.0721878,53.2786345 C59.3374409,53.2786345 58.7361751,52.679895 58.7361751,51.9482353 C58.7361751,51.2161765 59.3374409,50.617437 60.0721878,50.617437 L73.1665549,50.617437 C73.9013017,50.617437 74.5025675,51.2161765 74.5025675,51.9482353 C74.5025675,52.679895 73.9013017,53.2786345 73.1665549,53.2786345" id="Fill-52" fill="#BCC1C6"></path>
                <path d="M73.1665549,66.8372101 L43.4411751,66.8372101 C42.7064283,66.8372101 42.1051624,66.2384706 42.1051624,65.5068109 C42.1051624,64.7747521 42.7064283,64.1760126 43.4411751,64.1760126 L73.1665549,64.1760126 C73.9013017,64.1760126 74.5025675,64.7747521 74.5025675,65.5068109 C74.5025675,66.2384706 73.9013017,66.8372101 73.1665549,66.8372101" id="Fill-54" fill="#BCC1C6"></path>
                <path d="M56.535462,73.1036975 L43.4410949,73.1036975 C42.7063481,73.1036975 42.1050823,72.504958 42.1050823,71.7732983 C42.1050823,71.0412395 42.7063481,70.4425 43.4410949,70.4425 L56.535462,70.4425 C57.2702089,70.4425 57.8714747,71.0412395 57.8714747,71.7732983 C57.8714747,72.504958 57.2702089,73.1036975 56.535462,73.1036975" id="Fill-56" fill="#BCC1C6"></path>
                <path d="M66.9033692,59.5451218 L60.0721878,59.5451218 C59.3374409,59.5451218 58.7361751,58.9463824 58.7361751,58.2147227 C58.7361751,57.4826639 59.3374409,56.8839244 60.0721878,56.8839244 L66.9033692,56.8839244 C67.638116,56.8839244 68.2393819,57.4826639 68.2393819,58.2147227 C68.2393819,58.9463824 67.638116,59.5451218 66.9033692,59.5451218" id="Fill-58" fill="#BCC1C6"></path>
                <path d="M66.0273249,28.1187227 L51.1961013,28.1187227 C49.4323882,28.1187227 47.9893502,26.6817479 47.9893502,24.9254454 L47.9893502,19.6034496 C47.9893502,17.8471471 49.4323882,16.4101723 51.1961013,16.4101723 L66.0273249,16.4101723 C67.7906371,16.4101723 69.2340759,17.8471471 69.2340759,19.6034496 L69.2340759,24.9254454 C69.2340759,26.6817479 67.7906371,28.1187227 66.0273249,28.1187227" id="Fill-60" fill="#BCC1C6"></path>
                <path d="M66.0273249,25.6573046 L51.1961013,25.6573046 C49.4323882,25.6573046 47.9893502,24.2203298 47.9893502,22.4640273 L47.9893502,19.60325 C47.9893502,17.8469475 49.4323882,16.4099727 51.1961013,16.4099727 L66.0273249,16.4099727 C67.7906371,16.4099727 69.2340759,17.8469475 69.2340759,19.60325 L69.2340759,22.4640273 C69.2340759,24.2203298 67.7906371,25.6573046 66.0273249,25.6573046" id="Fill-62" fill="#98A2AD"></path>
                <path d="M63.4280928,17.3082815 C63.4280928,19.9351513 61.2895907,22.0650672 58.6512363,22.0650672 C56.0132827,22.0650672 53.8747806,19.9351513 53.8747806,17.3082815 C53.8747806,14.6810126 56.0132827,12.5514958 58.6512363,12.5514958 C61.2895907,12.5514958 63.4280928,14.6810126 63.4280928,17.3082815" id="Fill-64" fill="#98A2AD"></path>
                <path d="M60.3227152,16.4101723 C60.3227152,17.2827353 59.6128207,17.9900462 58.7361751,17.9900462 C57.8599304,17.9900462 57.149635,17.2827353 57.149635,16.4101723 C57.149635,15.5372101 57.8599304,14.8302983 58.7361751,14.8302983 C59.6128207,14.8302983 60.3227152,15.5372101 60.3227152,16.4101723" id="Fill-66" fill="#199BFA"></path>
                <path d="M52.9407743,60.3637185 L44.5767658,60.3637185 C43.2171034,60.3637185 42.1051624,59.2560504 42.1051624,57.9021008 L42.1051624,47.1247899 C42.1051624,45.7712395 43.2171034,44.6635714 44.5767658,44.6635714 L52.9407743,44.6635714 C54.3004367,44.6635714 55.4123776,45.7712395 55.4123776,47.1247899 L55.4123776,57.9021008 C55.4123776,59.2560504 54.3004367,60.3637185 52.9407743,60.3637185" id="Fill-68" fill="#BCC1C6"></path>
                <path d="M61.2430127,35.9169454 C62.5040675,37.1036471 63.7659241,38.2899496 65.0269789,39.4766513 C65.4715148,39.8945714 66.2952489,39.9807899 66.7281603,39.4766513 C68.6686456,37.2146134 70.6095316,34.9529748 72.5508186,32.690937 C73.5509241,31.5253908 71.8573586,29.8233739 70.850038,30.9977017 C68.9091519,33.2593403 66.9682658,35.5213782 65.0269789,37.783416 L66.7281603,37.783416 C65.4663038,36.5967143 64.2052489,35.4100126 62.9433924,34.2233109 C61.8190253,33.1655378 60.115038,34.855979 61.2430127,35.9169454" id="Fill-70" fill="#BCC1C6"></path>
                <path d="M12.3819473,52.9412647 C12.3819473,52.0164118 12.2584873,50.9686176 13.2004705,50.4237647 C13.8498376,50.0481555 14.7974325,50.199437 15.5217574,50.199437 C16.2304494,50.199437 16.2316519,49.1025462 15.5217574,49.1025462 C14.4358713,49.1025462 13.2934662,48.9672311 12.3743312,49.664563 C11.2740148,50.4992059 11.2808291,51.697084 11.2808291,52.9412647 C11.2808291,53.646979 12.3819473,53.6481765 12.3819473,52.9412647" id="Fill-72" fill="#238CCC"></path>
                <path d="M52.7180654,20.0441218 L51.340365,20.0441218 C50.8998376,20.0441218 50.5386772,19.6848782 50.5386772,19.2458025 C50.5386772,18.8067269 50.8998376,18.4474832 51.340365,18.4474832 L52.7180654,18.4474832 C53.1589937,18.4474832 53.5197532,18.8067269 53.5197532,19.2458025 C53.5197532,19.6848782 53.1589937,20.0441218 52.7180654,20.0441218" id="Fill-74" fill="#BCC1C6"></path>
                <path d="M66.0950274,20.0441218 L64.7177278,20.0441218 C64.2767996,20.0441218 63.9160401,19.6848782 63.9160401,19.2458025 C63.9160401,18.8067269 64.2767996,18.4474832 64.7177278,18.4474832 L66.0950274,18.4474832 C66.5363565,18.4474832 66.8967152,18.8067269 66.8967152,19.2458025 C66.8967152,19.6848782 66.5363565,20.0441218 66.0950274,20.0441218" id="Fill-76" fill="#BCC1C6"></path>
                <path d="M43.4019726,10.0828529 C43.4019726,12.3935882 41.5208122,14.2668445 39.200327,14.2668445 C36.8798418,14.2668445 34.9986814,12.3935882 34.9986814,10.0828529 C34.9986814,7.77211765 36.8798418,5.89886134 39.200327,5.89886134 C41.5208122,5.89886134 43.4019726,7.77211765 43.4019726,10.0828529" id="Fill-78" fill="#222F3A"></path>
                <path d="M41.5531603,10.0828529 C41.5531603,11.3769286 40.4997426,12.4259202 39.2002068,12.4259202 C37.9010717,12.4259202 36.847654,11.3769286 36.847654,10.0828529 C36.847654,8.78877731 37.9010717,7.73978571 39.2002068,7.73978571 C40.4997426,7.73978571 41.5531603,8.78877731 41.5531603,10.0828529" id="Fill-80" fill="#BCC1C6"></path>
                <path d="M40.1415886,10.0828529 C40.1415886,10.600563 39.7199008,11.0200798 39.2000063,11.0200798 C38.6801118,11.0200798 38.2592257,10.600563 38.2592257,10.0828529 C38.2592257,9.56514286 38.6801118,9.14562605 39.2000063,9.14562605 C39.7199008,9.14562605 40.1415886,9.56514286 40.1415886,10.0828529" id="Fill-82" fill="#222F3A"></path>
            </g>
        </g>
    </g>
</svg>