<?xml version="1.0" encoding="UTF-8"?>
<svg width="112px" height="138px" viewBox="0 0 112 138" version="1.1" xmlns="http://www.w3.org/2000/svg" xmlns:xlink="http://www.w3.org/1999/xlink">
    <!-- Generator: Sketch 52.2 (67145) - http://www.bohemiancoding.com/sketch -->
    <title>shopping-list</title>
    <desc>Created with Sketch.</desc>
    <defs>
        <path d="M93.2830977,15.6754336 L93.2830977,115.742301 C93.2830977,121.265148 88.8059452,125.742301 83.2830977,125.742301 L10.7169023,125.742301 C5.19405485,125.742301 0.716902344,121.265148 0.716902344,115.742301 L0.716902344,15.6754336 C0.716902344,13.1167969 2.78950391,11.0417344 5.34814063,11.0417344 L88.6496445,11.0417344 C91.2080352,11.0417344 93.2830977,13.1167969 93.2830977,15.6754336 Z" id="path-1"></path>
        <filter x="-17.3%" y="-12.2%" width="134.6%" height="127.9%" filterUnits="objectBoundingBox" id="filter-2">
            <feOffset dx="0" dy="2" in="SourceAlpha" result="shadowOffsetOuter1"></feOffset>
            <feGaussianBlur stdDeviation="5" in="shadowOffsetOuter1" result="shadowBlurOuter1"></feGaussianBlur>
            <feColorMatrix values="0 0 0 0 0   0 0 0 0 0   0 0 0 0 0  0 0 0 0.0663779438 0" type="matrix" in="shadowBlurOuter1"></feColorMatrix>
        </filter>
    </defs>
    <g id="Versão-atual" stroke="none" stroke-width="1" fill="none" fill-rule="evenodd">
        <g id="01.7---Confirmaçã0" transform="translate(-132.000000, -35.000000)" fill-rule="nonzero">
            <g id="Group-4" transform="translate(20.000000, 35.000000)">
                <g id="shopping-list" transform="translate(121.000000, 0.000000)">
                    <g id="Shape">
                        <use fill="black" fill-opacity="1" filter="url(#filter-2)" xlink:href="#path-1"></use>
                        <use fill="#FFE8CD" xlink:href="#path-1"></use>
                    </g>
                    <path d="M93.2830977,35.2278281 L0.716410156,35.2278281 L0.716410156,15.6761719 C0.716410156,13.117043 2.79098047,11.0424727 5.35010938,11.0424727 L88.6493984,11.0424727 C91.2085273,11.0424727 93.2830977,13.117043 93.2830977,15.6761719 L93.2830977,35.2278281 Z" id="Shape" fill="#FFE261"></path>
                    <g id="Group" transform="translate(7.378906, 0.000000)" fill="#374266">
                        <path d="M71.4213281,0.0014765625 C66.4822266,-0.0821953125 62.4398906,4.06645313 62.4398906,9.00629297 L62.4398906,11.0417344 L66.0399961,11.0417344 L66.0399961,8.95879688 C66.0399961,6.12699609 68.2373672,3.71158594 71.0671992,3.60379688 C74.0419805,3.49034766 76.4979961,5.87770313 76.4979961,8.82762891 L76.4979961,16.3696641 C76.4979961,18.78975 74.8449844,20.8325742 72.6092227,21.4261523 C71.8202461,21.6355781 71.2702266,22.3480195 71.2702266,23.1640664 C71.2702266,24.3369492 72.3771563,25.2095977 73.5114023,24.9115781 C77.2973086,23.9166211 80.0978555,20.4631875 80.0978555,16.3699102 L80.0978555,8.82812109 C80.0978555,4.01058984 76.2196641,0.0824414063 71.4213281,0.0014765625 Z" id="Shape"></path>
                        <path d="M50.6785781,0.0014765625 C45.7394766,-0.0821953125 41.6968945,4.06645313 41.6968945,9.00629297 L41.6968945,11.0417344 L45.297,11.0417344 L45.297,8.95879688 C45.297,6.12699609 47.4943711,3.71158594 50.3242031,3.60379688 C53.2989844,3.49034766 55.755,5.87770313 55.755,8.82762891 L55.755,16.3696641 C55.755,18.78975 54.1019883,20.8325742 51.8662266,21.4261523 C51.07725,21.6355781 50.5272305,22.3480195 50.5272305,23.1640664 C50.5272305,24.3369492 51.6341602,25.2095977 52.7684062,24.9115781 C56.5543125,23.9166211 59.3548594,20.4631875 59.3548594,16.3699102 L59.3548594,8.82812109 C59.3551055,4.01058984 55.476668,0.0824414063 50.6785781,0.0014765625 Z" id="Shape"></path>
                        <path d="M29.9358281,0.0014765625 C24.9967266,-0.0821953125 20.9541445,4.06645313 20.9541445,9.00629297 L20.9541445,11.0417344 L24.55425,11.0417344 L24.55425,8.95879688 C24.55425,6.12699609 26.7516211,3.71158594 29.5814531,3.60379688 C32.5562344,3.49034766 35.01225,5.87770313 35.01225,8.82762891 L35.01225,16.3696641 C35.01225,18.78975 33.3592383,20.8325742 31.1234766,21.4261523 C30.3345,21.6355781 29.7844805,22.3480195 29.7844805,23.1640664 C29.7844805,24.3369492 30.8914102,25.2095977 32.0256562,24.9115781 C35.8115625,23.9171133 38.6121094,20.4636797 38.6121094,16.3701563 L38.6121094,8.82812109 C38.6121094,4.01058984 34.733918,0.0824414063 29.9358281,0.0014765625 Z" id="Shape"></path>
                        <path d="M9.19283203,0.0014765625 C4.25373047,-0.0821953125 0.211394531,4.06645313 0.211394531,9.00629297 L0.211394531,11.0417344 L3.8115,11.0417344 L3.8115,8.95879688 C3.8115,6.12699609 6.00887109,3.71158594 8.83870312,3.60379688 C11.8134844,3.49034766 14.2695,5.87770313 14.2695,8.82762891 L14.2695,16.3696641 C14.2695,18.78975 12.6164883,20.8325742 10.3807266,21.4261523 C9.59175,21.6355781 9.04173047,22.3480195 9.04173047,23.1640664 C9.04173047,24.3369492 10.1486602,25.2095977 11.2829063,24.9115781 C15.0688125,23.9166211 17.8693594,20.4631875 17.8693594,16.3699102 L17.8693594,8.82812109 C17.8693594,4.01058984 13.991168,0.0824414063 9.19283203,0.0014765625 Z" id="Shape"></path>
                    </g>
                    <path d="M18.0323047,61.5534609 C18.0224609,61.5534609 18.0131094,61.5534609 18.0035117,61.5534609 C17.1608867,61.5428789 16.3901211,61.0750547 15.9924336,60.3320977 L10.2070156,49.5325195 C9.60334766,48.4059023 10.0276133,47.003168 11.1539844,46.3997461 C12.2803555,45.7960781 13.6830898,46.2203437 14.2867578,47.3467148 L18.0918594,54.4494727 L25.6624414,41.1252187 C26.2941641,40.0141055 27.7069883,39.6252773 28.8178555,40.2562617 C29.9289687,40.8877383 30.318043,42.3005625 29.6868125,43.4116758 L20.0443672,60.3823008 C19.6328984,61.1068008 18.8641016,61.5534609 18.0323047,61.5534609 Z" id="Shape" fill="#FF9F2F"></path>
                    <path d="M81.6719023,54.9967852 L39.2453398,54.9967852 C37.9671289,54.9967852 36.9310742,53.9607305 36.9310742,52.6825195 C36.9310742,51.4043086 37.9671289,50.3682539 39.2453398,50.3682539 L81.6719023,50.3682539 C82.9501133,50.3682539 83.986168,51.4043086 83.986168,52.6825195 C83.986168,53.9607305 82.9501133,54.9967852 81.6719023,54.9967852 Z" id="Shape" fill="#653C00"></path>
                    <path d="M18.1000582,85.5994696 C18.0902144,85.5994696 18.0808629,85.5994696 18.0712652,85.5994696 C17.2286402,85.5888876 16.4578746,85.1210634 16.0601871,84.3781064 L10.2747691,73.5785282 C9.67110116,72.451911 10.0953668,71.0491767 11.2217379,70.4457548 C12.348109,69.8420868 13.7508433,70.2661064 14.3545113,71.3927235 L18.1596129,78.4954814 L25.7301949,65.1712274 C26.3616715,64.0601142 27.7747418,63.671286 28.885609,64.3022704 C29.9967223,64.933747 30.3857965,66.3465712 29.754566,67.4576845 L20.1121207,84.4283095 C19.7006519,85.1528095 18.9318551,85.5994696 18.1000582,85.5994696 Z" id="Shape" fill="#FF9F2F"></path>
                    <path d="M18.1000582,109.59947 C18.0902144,109.59947 18.0808629,109.59947 18.0712652,109.59947 C17.2286402,109.588888 16.4578746,109.121063 16.0601871,108.378106 L10.2747691,97.5785282 C9.67110116,96.451911 10.0953668,95.0491767 11.2217379,94.4457548 C12.348109,93.8420868 13.7508433,94.2661064 14.3545113,95.3927235 L18.1596129,102.495481 L25.7301949,89.1712274 C26.3616715,88.0601142 27.7747418,87.671286 28.885609,88.3022704 C29.9967223,88.933747 30.3857965,90.3465712 29.754566,91.4576845 L20.1121207,108.428309 C19.7006519,109.152809 18.9318551,109.59947 18.1000582,109.59947 Z" id="Shape-Copy" fill="#FF9F2F"></path>
                    <g id="Group" transform="translate(36.910156, 74.320312)" fill="#653C00">
                        <path d="M44.7617461,4.63246875 L2.33518359,4.63246875 C1.05697266,4.63246875 0.0209179688,3.59641406 0.0209179688,2.31820313 C0.0209179688,1.03999219 1.05697266,0.0039375 2.33518359,0.0039375 L44.7617461,0.0039375 C46.039957,0.0039375 47.0760117,1.03999219 47.0760117,2.31820313 C47.0760117,3.59666016 46.039957,4.63246875 44.7617461,4.63246875 Z" id="Shape"></path>
                        <path d="M44.7617461,30.6312891 L2.33518359,30.6312891 C1.05697266,30.6312891 0.0209179688,29.5952344 0.0209179688,28.3170234 C0.0209179688,27.0388125 1.05697266,26.0027578 2.33518359,26.0027578 L44.7617461,26.0027578 C46.039957,26.0027578 47.0760117,27.0388125 47.0760117,28.3170234 C47.0760117,29.5952344 46.039957,30.6312891 44.7617461,30.6312891 Z" id="Shape"></path>
                    </g>
                </g>
            </g>
        </g>
    </g>
</svg>