<?xml version="1.0" encoding="UTF-8"?>
<svg width="60px" height="60px" viewBox="0 0 60 60" version="1.1" xmlns="http://www.w3.org/2000/svg" xmlns:xlink="http://www.w3.org/1999/xlink">
    <!-- Generator: Sketch 52.2 (67145) - http://www.bohemiancoding.com/sketch -->
    <title>Group 13</title>
    <desc>Created with Sketch.</desc>
    <g id="Versão-atual" stroke="none" stroke-width="1" fill="none" fill-rule="evenodd">
        <g id="01.5---Float" transform="translate(-300.000000, -97.000000)">
            <g id="Group-34" transform="translate(123.000000, 19.000000)">
                <g id="Group-19" transform="translate(0.000000, 78.000000)">
                    <g id="Group-13" transform="translate(177.000000, 0.000000)">
                        <g id="smile">
                            <g id="Group-4">
                                <path d="M30,60 C46.5685425,60 60,46.5685425 60,30 C60,13.4314575 46.5685425,0 30,0 C13.4314575,0 0,13.4314575 0,30 C0,46.5685425 13.4314575,60 30,60 Z" id="Oval-5" fill="#4FB23E"></path>
                                <g id="Group" transform="translate(14.000000, 19.000000)" fill="#000000" fill-opacity="0.313717165">
                                    <circle id="Oval-path" cx="4.84615385" cy="5.09230769" r="4.46153846"></circle>
                                    <circle id="Oval-path" cx="27.1538462" cy="5.09230769" r="4.46153846"></circle>
                                    <path d="M24.0368588,16.7474644 C23.3051688,15.7042032 21.9170735,15.4895847 20.9365544,16.2682327 C20.8941094,16.3019308 20.8529623,16.3371481 20.8128537,16.3740227 C17.680099,18.8085751 13.4274186,18.8085751 10.2946639,16.3740227 C9.36905072,15.5227304 7.97005217,15.6311445 7.17008667,16.6159864 C6.36999138,17.6008283 6.47188541,19.0893469 7.39749857,19.9405011 C7.43747738,19.9773757 7.4787542,20.012593 7.52119923,20.0462912 C12.262971,23.9025183 18.8445466,23.9025183 23.5863184,20.0462912 C24.5669673,19.2676432 24.7686786,17.7907256 24.0368588,16.7474644 Z" id="Shape"></path>
                                </g>
                            </g>
                        </g>
                    </g>
                </g>
            </g>
        </g>
    </g>
</svg>