<?xml version="1.0" encoding="UTF-8"?>
<svg width="32px" height="32px" viewBox="0 0 32 32" version="1.1" xmlns="http://www.w3.org/2000/svg" xmlns:xlink="http://www.w3.org/1999/xlink">
    <!-- Generator: Sketch 52.2 (67145) - http://www.bohemiancoding.com/sketch -->
    <title>Group 30</title>
    <desc>Created with Sketch.</desc>
    <g id="Versão-atual" stroke="none" stroke-width="1" fill="none" fill-rule="evenodd" stroke-linecap="round" stroke-linejoin="round">
        <g id="RELAICON" transform="translate(-2.000000, -2.000000)" fill="#C4CDD5" stroke="#C4CDD5" stroke-width="0.600000024">
            <g id="Group-30" transform="translate(3.000000, 3.000000)">
                <g id="Group-24">
                    <g id="01-icon-">
                        <g id="#000000ff">
                            <path d="M14.4337815,0.0141414143 C15.529916,-0.0287878787 16.6295798,0.0520202021 17.710084,0.241919192 C17.8689076,0.27020202 18.0282353,0.304040404 18.1769748,0.368686869 C18.5803361,0.558585859 18.8248739,1.03434343 18.7421849,1.47373737 C18.7119328,1.71868687 18.5591597,1.92777778 18.3816807,2.08989899 C18.1194958,2.31363636 17.7443697,2.36616162 17.4171429,2.28535354 C15.3680672,1.91363636 13.2272269,2.01060606 11.2336134,2.62323232 C9.77647059,3.07676768 8.38991597,3.77575758 7.18336134,4.71363636 C5.74689076,5.80454545 4.55042017,7.20858586 3.68420168,8.79090909 C2.74336134,10.5217172 2.19680672,12.4722222 2.11764706,14.4419192 C2.01680672,16.6959596 2.53411765,18.9686869 3.57226891,20.9686869 C4.75714286,23.2368687 6.62773109,25.1414141 8.87798319,26.3550505 C10.4147899,27.1873737 12.12,27.7055556 13.8610084,27.8535354 C16.069916,28.0429293 18.3337815,27.6833333 20.3485714,26.7469697 C22.6396639,25.7141414 24.6065546,23.979798 25.9391597,21.8484848 C26.8557983,20.4040404 27.4552941,18.7661616 27.7426891,17.0818182 C28.0739496,15.0545455 27.9236975,12.9464646 27.2783193,10.9944444 C26.8336134,9.60050505 26.1428571,8.28636364 25.2514286,7.12676768 C25.0709244,6.89949495 24.9529412,6.60757576 24.9973109,6.31363636 C25.014958,6.02777778 25.1994958,5.78484848 25.4107563,5.60707071 C25.8191597,5.3020202 26.4494118,5.36060606 26.7867227,5.7469697 C28.5509244,7.98282828 29.6329412,10.7414141 29.9087395,13.5752525 C29.9652101,14.0646465 29.9470588,14.5575758 29.9495798,15.0494949 C29.997479,16.9757576 29.5598319,18.890404 28.8509244,20.6727273 C27.9932773,22.7833333 26.6329412,24.6808081 24.9368067,26.1964646 C24.349916,26.7131313 23.7211765,27.1808081 23.0707563,27.6136364 C21.0070588,28.9237374 18.6272269,29.7434343 16.1868908,29.9191919 C15.5662185,29.9747475 14.9420168,29.939899 14.3198319,29.9489899 C12.3010084,29.8626263 10.2978151,29.360101 8.48420168,28.4656566 C7.76571429,28.119697 7.06890756,27.7247475 6.42403361,27.2535354 C3.82084034,25.4328283 1.81613445,22.759596 0.824369748,19.7363636 C0.30907563,18.1969697 0.0327731092,16.5737374 0.0504201681,14.9489899 C0.0357983193,12.8863636 0.501176471,10.8353535 1.31394958,8.94545455 C1.95277311,7.50353535 2.81243697,6.15656566 3.8697479,4.98636364 C4.78033613,3.95 5.85478992,3.06868687 7.00739496,2.31616162 C9.22739496,0.92020202 11.8104202,0.0979797981 14.4337815,0.0141414143 Z" id="Path"></path>
                            <path d="M21.2909244,1.67474747 C21.5561345,1.60757576 21.8470588,1.64191919 22.085042,1.77878788 C22.7763025,2.16010101 23.4504202,2.57676768 24.0746218,3.06212121 C24.2828571,3.23282828 24.4744538,3.45959596 24.5092437,3.73686869 C24.5803361,4.13636364 24.3892437,4.57575758 24.0398319,4.78484848 C23.6793277,5.02121212 23.1695798,4.98333333 22.8378151,4.71262626 C22.3472269,4.32727273 21.8178151,3.99393939 21.2747899,3.68787879 C21.0862185,3.58181818 20.8820168,3.48333333 20.7519328,3.3040404 C20.5396639,3.03484848 20.4705882,2.65707071 20.5905882,2.33383838 C20.689916,2.01262626 20.9712605,1.76414141 21.2909244,1.67474747 Z" id="Path"></path>
                            <path d="M19.3860504,8.40909041 C19.6557983,8.34750165 19.9517647,8.36100055 20.2078992,8.45675843 C20.6233613,8.60482456 20.9258824,8.96634217 20.9440336,9.34431158 C20.9440336,13.0982733 20.9430252,16.852235 20.9445378,20.6061968 C20.9364706,21.1242173 20.3863866,21.5933043 19.7621849,21.5945699 C19.1067227,21.6333792 18.4986555,21.151637 18.4915966,20.6066186 C18.4931092,16.9783654 18.4915966,13.3501123 18.492605,9.72185914 C18.5021849,9.50123637 18.4552941,9.27048943 18.5571429,9.06041268 C18.6968067,8.75246886 18.9998319,8.49388042 19.3860504,8.40909041 Z" id="Path"></path>
                            <path d="M9.9005042,14.3047526 C10.1818487,14.2503935 10.4984874,14.2539387 10.7727731,14.3210013 C11.1912605,14.4205611 11.4988235,14.6710855 11.5265546,14.9349042 C11.527563,16.9249188 11.5255462,18.914638 11.5270588,20.9046526 C11.5321008,21.0884099 11.3682353,21.2573957 11.1630252,21.3900437 C10.8751261,21.560802 10.4344538,21.6305234 10.0361345,21.5791187 C9.47042017,21.5144196 9.03630252,21.1823566 9.07411765,20.8458621 C9.07663866,18.9447718 9.07462185,17.0433861 9.07512605,15.1422959 C9.07915966,15.02826 9.05596639,14.9115653 9.10991597,14.8004837 C9.22689076,14.5768434 9.51378151,14.3780192 9.9005042,14.3047526 Z" id="Path"></path>
                            <path d="M14.692437,11.4027229 C15.0973109,11.2911067 15.5536134,11.4087835 15.8561345,11.7001976 C16.0658824,11.9254502 16.2357983,12.2148441 16.2352941,12.5310057 C16.2347899,15.1582784 16.2342857,17.7855512 16.2357983,20.4128239 C16.2282353,21.0774704 15.5969748,21.6597936 14.9309244,21.5921168 C14.2835294,21.57343 13.737479,20.9532279 13.7828571,20.3102986 C13.7843697,17.7517128 13.7843697,15.193632 13.7828571,12.6350461 C13.7510924,12.0805007 14.1564706,11.5390865 14.692437,11.4027229 Z" id="Path"></path>
                        </g>
                    </g>
                </g>
            </g>
        </g>
    </g>
</svg>