<?xml version="1.0" encoding="UTF-8"?>
<svg width="16px" height="16px" viewBox="0 0 16 16" version="1.1" xmlns="http://www.w3.org/2000/svg" xmlns:xlink="http://www.w3.org/1999/xlink">
    <!-- Generator: Sketch 63.1 (92452) - https://sketch.com -->
    <title>Group 6</title>
    <desc>Created with Sketch.</desc>
    <defs>
        <path d="M13.9560983,11.1716132 C13.9651525,10.798006 13.7056431,10.4917245 13.3590961,10.4428064 C12.6329192,10.347031 11.9199078,10.1694125 11.2320796,9.91274608 C10.975641,9.81635116 10.6865524,9.87800515 10.4945385,10.0678667 L9.60334123,10.9590639 C9.3799714,11.1824338 9.03488548,11.2290199 8.76028174,11.0728759 C6.89366734,10.0114897 5.3481384,8.46596074 4.28675214,6.59934635 C4.13060814,6.32474261 4.17719433,5.97965669 4.40056415,5.75628686 L5.28899273,4.86787382 C5.48162294,4.67307573 5.54327692,4.38398704 5.44628909,4.12596539 C5.19021554,3.43972033 5.01259705,2.72670893 4.91770307,2.0069837 C4.86840683,1.65821241 4.56819377,1.40002918 4.20906676,1.4034946 L2.10453719,1.4034946 C1.90755952,1.40371496 1.71972928,1.48668086 1.58692904,1.63216052 C1.4541288,1.77764019 1.38858763,1.97223694 1.40523996,2.15746893 C1.62393886,4.21690992 2.32467975,6.19587524 3.45401481,7.93921864 C4.47615559,9.54777051 5.83992678,10.9115417 7.45393789,11.937187 C9.18424393,13.0592842 11.1536318,13.759866 13.1912182,13.9813821 C13.3880058,13.9991668 13.5831723,13.9331632 13.7287709,13.7995866 C13.8743694,13.6660099 13.9569061,13.4772399 13.9560983,13.2768036 L13.9560983,11.1716132 Z M15.3595528,13.2739553 C15.3619588,13.8667192 15.1143486,14.4330293 14.6775531,14.8337592 C14.2407575,15.234489 13.655258,15.4324998 13.0522542,15.3778878 C10.7838013,15.1314019 8.60479262,14.3562505 6.69577276,13.1182223 C4.9133234,11.9855798 3.40211749,10.4743739 2.27279692,8.697102 C1.0269314,6.77392638 0.251603933,4.58432079 0.00855107048,2.29472735 C-0.0446331858,1.70619225 0.151990332,1.122402 0.550391059,0.68596301 C0.948791787,0.249524023 1.51228251,0.000626311193 2.10387636,-3.68268458e-13 L4.20216058,-3.68268458e-13 C5.25882306,-0.0102963178 6.15946224,0.764253376 6.30823237,1.817019 C6.39016737,2.43825712 6.54211846,3.04823219 6.76059423,3.63372576 C7.04977897,4.40304131 6.86481702,5.27030737 6.28415769,5.85748586 L5.78095223,6.36069133 C6.60608579,7.65513695 7.70449484,8.7535455 8.99894088,9.57867848 L9.50492645,9.0727017 C10.0893207,8.49481107 10.9565868,8.30984911 11.7243192,8.59844093 C12.3113959,8.81750963 12.921371,8.96946071 13.5488789,9.05225142 C14.6041705,9.20112727 15.3812082,10.1149397 15.3595586,11.1794563 L15.3595528,13.2739553 Z" id="path-1"></path>
    </defs>
    <g id="Corona-Virus" stroke="none" stroke-width="1" fill="none" fill-rule="evenodd">
        <g id="Teste-rápido-&gt;-mais-de-14-dias-Copy" transform="translate(-43.000000, -504.000000)">
            <g id="Group-5" transform="translate(20.000000, 381.000000)">
                <g id="Group-7" transform="translate(20.000000, 120.000000)">
                    <g id="Group-6">
                        <rect id="Rectangle" x="0" y="0" width="22" height="22"></rect>
                        <g id="phone-2" transform="translate(3.000000, 3.000000)">
                            <g id="phone">
                                <path d="M13.9560983,11.1716132 C13.9651525,10.798006 13.7056431,10.4917245 13.3590961,10.4428064 C12.6329192,10.347031 11.9199078,10.1694125 11.2320796,9.91274608 C10.975641,9.81635116 10.6865524,9.87800515 10.4945385,10.0678667 L9.60334123,10.9590639 C9.3799714,11.1824338 9.03488548,11.2290199 8.76028174,11.0728759 C6.89366734,10.0114897 5.3481384,8.46596074 4.28675214,6.59934635 C4.13060814,6.32474261 4.17719433,5.97965669 4.40056415,5.75628686 L4.74268123,6.30852536 C4.93531144,6.11372727 4.99696543,5.82463858 4.89997759,5.56661693 C4.64390405,4.88037186 4.46628555,4.16736047 4.37139158,3.44763524 C4.32209533,3.09886395 4.02188227,2.84068072 3.66275526,2.84411166 L1.5582257,2.84411166 C1.36124803,2.8443665 1.17341779,2.9273324 1.04061754,3.07281206 C0.907817301,3.21829173 0.842276128,3.41288848 0.858928468,3.59812046 C1.07762736,5.65756145 2.32467975,6.19587524 3.45401481,7.93921864 C4.47615559,9.54777051 5.83992678,10.9115417 7.45393789,11.937187 C9.18424393,13.0592842 11.1536318,13.759866 13.1912182,13.9813821 C13.3880058,13.9991668 13.5831723,13.9331632 13.7287709,13.7995866 C13.8743694,13.6660099 13.9569061,13.4772399 13.9560983,13.2768036 L13.9560983,11.1716132 Z" id="Path" fill="#B8DEFF" fill-rule="nonzero"></path>
                                <mask id="mask-2" fill="white">
                                    <use xlink:href="#path-1"></use>
                                </mask>
                                <use id="Shape" fill="#006FCF" fill-rule="nonzero" xlink:href="#path-1"></use>
                            </g>
                        </g>
                    </g>
                </g>
            </g>
        </g>
    </g>
</svg>