<?xml version="1.0" encoding="UTF-8"?>
<svg width="26px" height="26px" viewBox="0 0 26 26" version="1.1" xmlns="http://www.w3.org/2000/svg" xmlns:xlink="http://www.w3.org/1999/xlink">
    <!-- Generator: Sketch 52.5 (67469) - http://www.bohemiancoding.com/sketch -->
    <title>Calendar - simple-line-icons</title>
    <desc>Created with Sketch.</desc>
    <g id="Versão-atual" stroke="none" stroke-width="1" fill="none" fill-rule="evenodd">
        <g id="04.2---Detalhe-de-Saúde" transform="translate(-33.000000, -804.000000)" fill="#0089EC" stroke="#0089EC" stroke-width="0.5">
            <path d="M56.5,807.25 C56.9218771,807.25 57.2773423,807.39453 57.5664062,807.683594 C57.8554702,807.972658 58,808.328123 58,808.75 L58,827.5 C58,827.906252 57.8554702,828.257811 57.5664062,828.554688 C57.2773423,828.851564 56.9218771,829 56.5,829 L35.5,829 C35.0781229,829 34.7226577,828.851564 34.4335938,828.554688 C34.1445298,828.257811 34,827.906252 34,827.5 L34,808.75 C34,808.328123 34.1445298,807.972658 34.4335938,807.683594 C34.7226577,807.39453 35.0781229,807.25 35.5,807.25 L41.5,807.25 L41.5,805.75 C41.5,805.546874 41.574218,805.371094 41.7226562,805.222656 C41.8710945,805.074218 42.046874,805 42.25,805 C42.453126,805 42.6289055,805.074218 42.7773438,805.222656 C42.925782,805.371094 43,805.546874 43,805.75 L43,807.25 L49,807.25 L49,805.75 C49,805.546874 49.074218,805.371094 49.2226562,805.222656 C49.3710945,805.074218 49.546874,805 49.75,805 C49.953126,805 50.1289055,805.074218 50.2773438,805.222656 C50.425782,805.371094 50.5,805.546874 50.5,805.75 L50.5,807.25 L56.5,807.25 Z M56.5,827.5 L56.5,808.75 L50.5,808.75 L50.5,809.5 C50.5,809.703126 50.425782,809.878906 50.2773438,810.027344 C50.1289055,810.175782 49.953126,810.25 49.75,810.25 C49.546874,810.25 49.3710945,810.175782 49.2226562,810.027344 C49.074218,809.878906 49,809.703126 49,809.5 L49,808.75 L43,808.75 L43,809.5 C43,809.703126 42.925782,809.878906 42.7773438,810.027344 C42.6289055,810.175782 42.453126,810.25 42.25,810.25 C42.046874,810.25 41.8710945,810.175782 41.7226562,810.027344 C41.574218,809.878906 41.5,809.703126 41.5,809.5 L41.5,808.75 L35.5,808.75 L35.5,827.5 L56.5,827.5 Z M51.25,817 C51.046874,817 50.8710945,816.925782 50.7226562,816.777344 C50.574218,816.628906 50.5,816.453126 50.5,816.25 L50.5,814.75 C50.5,814.546874 50.574218,814.371094 50.7226562,814.222656 C50.8710945,814.074218 51.046874,814 51.25,814 L52.75,814 C52.953126,814 53.1289055,814.074218 53.2773438,814.222656 C53.425782,814.371094 53.5,814.546874 53.5,814.75 L53.5,816.25 C53.5,816.453126 53.425782,816.628906 53.2773438,816.777344 C53.1289055,816.925782 52.953126,817 52.75,817 L51.25,817 Z M51.25,823 C51.046874,823 50.8710945,822.925782 50.7226562,822.777344 C50.574218,822.628906 50.5,822.453126 50.5,822.25 L50.5,820.75 C50.5,820.546874 50.574218,820.371094 50.7226562,820.222656 C50.8710945,820.074218 51.046874,820 51.25,820 L52.75,820 C52.953126,820 53.1289055,820.074218 53.2773438,820.222656 C53.425782,820.371094 53.5,820.546874 53.5,820.75 L53.5,822.25 C53.5,822.453126 53.425782,822.628906 53.2773438,822.777344 C53.1289055,822.925782 52.953126,823 52.75,823 L51.25,823 Z M46.75,820 C46.953126,820 47.1289055,820.074218 47.2773438,820.222656 C47.425782,820.371094 47.5,820.546874 47.5,820.75 L47.5,822.25 C47.5,822.453126 47.425782,822.628906 47.2773438,822.777344 C47.1289055,822.925782 46.953126,823 46.75,823 L45.25,823 C45.046874,823 44.8710945,822.925782 44.7226562,822.777344 C44.574218,822.628906 44.5,822.453126 44.5,822.25 L44.5,820.75 C44.5,820.546874 44.574218,820.371094 44.7226562,820.222656 C44.8710945,820.074218 45.046874,820 45.25,820 L46.75,820 Z M46.75,814 C46.953126,814 47.1289055,814.074218 47.2773438,814.222656 C47.425782,814.371094 47.5,814.546874 47.5,814.75 L47.5,816.25 C47.5,816.453126 47.425782,816.628906 47.2773438,816.777344 C47.1289055,816.925782 46.953126,817 46.75,817 L45.25,817 C45.046874,817 44.8710945,816.925782 44.7226562,816.777344 C44.574218,816.628906 44.5,816.453126 44.5,816.25 L44.5,814.75 C44.5,814.546874 44.574218,814.371094 44.7226562,814.222656 C44.8710945,814.074218 45.046874,814 45.25,814 L46.75,814 Z M40.75,814 C40.953126,814 41.1289055,814.074218 41.2773438,814.222656 C41.425782,814.371094 41.5,814.546874 41.5,814.75 L41.5,816.25 C41.5,816.453126 41.425782,816.628906 41.2773438,816.777344 C41.1289055,816.925782 40.953126,817 40.75,817 L39.25,817 C39.046874,817 38.8710945,816.925782 38.7226562,816.777344 C38.574218,816.628906 38.5,816.453126 38.5,816.25 L38.5,814.75 C38.5,814.546874 38.574218,814.371094 38.7226562,814.222656 C38.8710945,814.074218 39.046874,814 39.25,814 L40.75,814 Z M40.75,820 C40.953126,820 41.1289055,820.074218 41.2773438,820.222656 C41.425782,820.371094 41.5,820.546874 41.5,820.75 L41.5,822.25 C41.5,822.453126 41.425782,822.628906 41.2773438,822.777344 C41.1289055,822.925782 40.953126,823 40.75,823 L39.25,823 C39.046874,823 38.8710945,822.925782 38.7226562,822.777344 C38.574218,822.628906 38.5,822.453126 38.5,822.25 L38.5,820.75 C38.5,820.546874 38.574218,820.371094 38.7226562,820.222656 C38.8710945,820.074218 39.046874,820 39.25,820 L40.75,820 Z" id="Calendar---simple-line-icons"></path>
        </g>
    </g>
</svg>