<?xml version="1.0" encoding="UTF-8"?>
<svg width="87px" height="87px" viewBox="0 0 87 87" version="1.1" xmlns="http://www.w3.org/2000/svg" xmlns:xlink="http://www.w3.org/1999/xlink">
    <!-- Generator: Sketch 52.5 (67469) - http://www.bohemiancoding.com/sketch -->
    <title>Calendar - simple-line-icons</title>
    <desc>Created with Sketch.</desc>
    <defs>
        <filter x="-24.8%" y="-59.6%" width="149.6%" height="222.1%" filterUnits="objectBoundingBox" id="filter-1">
            <feOffset dx="0" dy="10" in="SourceAlpha" result="shadowOffsetOuter1"></feOffset>
            <feGaussianBlur stdDeviation="16.5" in="shadowOffsetOuter1" result="shadowBlurOuter1"></feGaussianBlur>
            <feColorMatrix values="0 0 0 0 0.768627451   0 0 0 0 0.803921569   0 0 0 0 0.835294118  0 0 0 0.244310462 0" type="matrix" in="shadowBlurOuter1" result="shadowMatrixOuter1"></feColorMatrix>
            <feMerge>
                <feMergeNode in="shadowMatrixOuter1"></feMergeNode>
                <feMergeNode in="SourceGraphic"></feMergeNode>
            </feMerge>
        </filter>
    </defs>
    <g id="Versão-atual" stroke="none" stroke-width="1" fill="none" fill-rule="evenodd">
        <g id="04.2---Detalhe-de-Saúde" transform="translate(-143.000000, -137.000000)" fill="#FFFFFF" stroke="#FFFFFF" stroke-width="0.5">
            <g id="Group-11" filter="url(#filter-1)" transform="translate(15.000000, 134.000000)">
                <g id="Group-10" transform="translate(20.000000, 24.000000)">
                    <path d="M161.5625,2.15625 C161.966799,2.15625 162.307453,2.29475773 162.584473,2.57177734 C162.861492,2.84879696 163,3.1894511 163,3.59375 L163,21.5625 C163,21.9518249 162.861492,22.2887356 162.584473,22.5732422 C162.307453,22.8577488 161.966799,23 161.5625,23 L141.4375,23 C141.033201,23 140.692547,22.8577488 140.415527,22.5732422 C140.138508,22.2887356 140,21.9518249 140,21.5625 L140,3.59375 C140,3.1894511 140.138508,2.84879696 140.415527,2.57177734 C140.692547,2.29475773 141.033201,2.15625 141.4375,2.15625 L147.1875,2.15625 L147.1875,0.71875 C147.1875,0.524087568 147.258626,0.355632222 147.400879,0.213378906 C147.543132,0.0711255908 147.711588,0 147.90625,0 C148.100912,0 148.269368,0.0711255908 148.411621,0.213378906 C148.553874,0.355632222 148.625,0.524087568 148.625,0.71875 L148.625,2.15625 L154.375,2.15625 L154.375,0.71875 C154.375,0.524087568 154.446126,0.355632222 154.588379,0.213378906 C154.730632,0.0711255908 154.899088,0 155.09375,0 C155.288412,0 155.456868,0.0711255908 155.599121,0.213378906 C155.741374,0.355632222 155.8125,0.524087568 155.8125,0.71875 L155.8125,2.15625 L161.5625,2.15625 Z M161.5625,21.5625 L161.5625,3.59375 L155.8125,3.59375 L155.8125,4.3125 C155.8125,4.50716243 155.741374,4.67561778 155.599121,4.81787109 C155.456868,4.96012441 155.288412,5.03125 155.09375,5.03125 C154.899088,5.03125 154.730632,4.96012441 154.588379,4.81787109 C154.446126,4.67561778 154.375,4.50716243 154.375,4.3125 L154.375,3.59375 L148.625,3.59375 L148.625,4.3125 C148.625,4.50716243 148.553874,4.67561778 148.411621,4.81787109 C148.269368,4.96012441 148.100912,5.03125 147.90625,5.03125 C147.711588,5.03125 147.543132,4.96012441 147.400879,4.81787109 C147.258626,4.67561778 147.1875,4.50716243 147.1875,4.3125 L147.1875,3.59375 L141.4375,3.59375 L141.4375,21.5625 L161.5625,21.5625 Z M156.53125,11.5 C156.336588,11.5 156.168132,11.4288744 156.025879,11.2866211 C155.883626,11.1443678 155.8125,10.9759124 155.8125,10.78125 L155.8125,9.34375 C155.8125,9.14908757 155.883626,8.98063222 156.025879,8.83837891 C156.168132,8.69612559 156.336588,8.625 156.53125,8.625 L157.96875,8.625 C158.163412,8.625 158.331868,8.69612559 158.474121,8.83837891 C158.616374,8.98063222 158.6875,9.14908757 158.6875,9.34375 L158.6875,10.78125 C158.6875,10.9759124 158.616374,11.1443678 158.474121,11.2866211 C158.331868,11.4288744 158.163412,11.5 157.96875,11.5 L156.53125,11.5 Z M156.53125,17.25 C156.336588,17.25 156.168132,17.1788744 156.025879,17.0366211 C155.883626,16.8943678 155.8125,16.7259124 155.8125,16.53125 L155.8125,15.09375 C155.8125,14.8990876 155.883626,14.7306322 156.025879,14.5883789 C156.168132,14.4461256 156.336588,14.375 156.53125,14.375 L157.96875,14.375 C158.163412,14.375 158.331868,14.4461256 158.474121,14.5883789 C158.616374,14.7306322 158.6875,14.8990876 158.6875,15.09375 L158.6875,16.53125 C158.6875,16.7259124 158.616374,16.8943678 158.474121,17.0366211 C158.331868,17.1788744 158.163412,17.25 157.96875,17.25 L156.53125,17.25 Z M152.21875,14.375 C152.413412,14.375 152.581868,14.4461256 152.724121,14.5883789 C152.866374,14.7306322 152.9375,14.8990876 152.9375,15.09375 L152.9375,16.53125 C152.9375,16.7259124 152.866374,16.8943678 152.724121,17.0366211 C152.581868,17.1788744 152.413412,17.25 152.21875,17.25 L150.78125,17.25 C150.586588,17.25 150.418132,17.1788744 150.275879,17.0366211 C150.133626,16.8943678 150.0625,16.7259124 150.0625,16.53125 L150.0625,15.09375 C150.0625,14.8990876 150.133626,14.7306322 150.275879,14.5883789 C150.418132,14.4461256 150.586588,14.375 150.78125,14.375 L152.21875,14.375 Z M152.21875,8.625 C152.413412,8.625 152.581868,8.69612559 152.724121,8.83837891 C152.866374,8.98063222 152.9375,9.14908757 152.9375,9.34375 L152.9375,10.78125 C152.9375,10.9759124 152.866374,11.1443678 152.724121,11.2866211 C152.581868,11.4288744 152.413412,11.5 152.21875,11.5 L150.78125,11.5 C150.586588,11.5 150.418132,11.4288744 150.275879,11.2866211 C150.133626,11.1443678 150.0625,10.9759124 150.0625,10.78125 L150.0625,9.34375 C150.0625,9.14908757 150.133626,8.98063222 150.275879,8.83837891 C150.418132,8.69612559 150.586588,8.625 150.78125,8.625 L152.21875,8.625 Z M146.46875,8.625 C146.663412,8.625 146.831868,8.69612559 146.974121,8.83837891 C147.116374,8.98063222 147.1875,9.14908757 147.1875,9.34375 L147.1875,10.78125 C147.1875,10.9759124 147.116374,11.1443678 146.974121,11.2866211 C146.831868,11.4288744 146.663412,11.5 146.46875,11.5 L145.03125,11.5 C144.836588,11.5 144.668132,11.4288744 144.525879,11.2866211 C144.383626,11.1443678 144.3125,10.9759124 144.3125,10.78125 L144.3125,9.34375 C144.3125,9.14908757 144.383626,8.98063222 144.525879,8.83837891 C144.668132,8.69612559 144.836588,8.625 145.03125,8.625 L146.46875,8.625 Z M146.46875,14.375 C146.663412,14.375 146.831868,14.4461256 146.974121,14.5883789 C147.116374,14.7306322 147.1875,14.8990876 147.1875,15.09375 L147.1875,16.53125 C147.1875,16.7259124 147.116374,16.8943678 146.974121,17.0366211 C146.831868,17.1788744 146.663412,17.25 146.46875,17.25 L145.03125,17.25 C144.836588,17.25 144.668132,17.1788744 144.525879,17.0366211 C144.383626,16.8943678 144.3125,16.7259124 144.3125,16.53125 L144.3125,15.09375 C144.3125,14.8990876 144.383626,14.7306322 144.525879,14.5883789 C144.668132,14.4461256 144.836588,14.375 145.03125,14.375 L146.46875,14.375 Z" id="Calendar---simple-line-icons"></path>
                </g>
            </g>
        </g>
    </g>
</svg>