<?xml version="1.0" encoding="UTF-8"?>
<svg width="375px" height="206px" viewBox="0 0 375 206" version="1.1" xmlns="http://www.w3.org/2000/svg" xmlns:xlink="http://www.w3.org/1999/xlink">
    <!-- Generator: Sketch 52.5 (67469) - http://www.bohemiancoding.com/sketch -->
    <title>Group 8</title>
    <desc>Created with Sketch.</desc>
    <defs>
        <filter x="-24.8%" y="-59.6%" width="149.6%" height="222.1%" filterUnits="objectBoundingBox" id="filter-1">
            <feOffset dx="0" dy="10" in="SourceAlpha" result="shadowOffsetOuter1"></feOffset>
            <feGaussianBlur stdDeviation="16.5" in="shadowOffsetOuter1" result="shadowBlurOuter1"></feGaussianBlur>
            <feColorMatrix values="0 0 0 0 0.768627451   0 0 0 0 0.803921569   0 0 0 0 0.835294118  0 0 0 0.244310462 0" type="matrix" in="shadowBlurOuter1" result="shadowMatrixOuter1"></feColorMatrix>
            <feMerge>
                <feMergeNode in="shadowMatrixOuter1"></feMergeNode>
                <feMergeNode in="SourceGraphic"></feMergeNode>
            </feMerge>
        </filter>
        <rect id="path-2" x="0" y="0" width="345" height="140" rx="10"></rect>
        <filter x="-1.6%" y="-2.5%" width="103.2%" height="107.9%" filterUnits="objectBoundingBox" id="filter-4">
            <feOffset dx="0" dy="2" in="SourceAlpha" result="shadowOffsetOuter1"></feOffset>
            <feGaussianBlur stdDeviation="1.5" in="shadowOffsetOuter1" result="shadowBlurOuter1"></feGaussianBlur>
            <feColorMatrix values="0 0 0 0 0   0 0 0 0 0   0 0 0 0 0  0 0 0 0.08 0" type="matrix" in="shadowBlurOuter1"></feColorMatrix>
        </filter>
        <polygon id="path-5" points="0.000230886089 0.261337815 182.137559 0.261337815 182.137559 181.633613 0.000230886089 181.633613"></polygon>
        <path d="M182.13779,90.9475523 C182.13779,141.032446 141.364849,181.634073 91.0686258,181.634073 C40.772403,181.634073 0.000230886089,141.032446 0.000230886089,90.9475523 C0.000230886089,40.8626582 40.772403,0.261031261 91.0686258,0.261031261 C141.364849,0.261031261 182.13779,40.8626582 182.13779,90.9475523" id="path-7"></path>
        <filter x="-5.8%" y="-4.1%" width="111.5%" height="111.6%" filterUnits="objectBoundingBox" id="filter-8">
            <feOffset dx="0" dy="3" in="SourceAlpha" result="shadowOffsetOuter1"></feOffset>
            <feGaussianBlur stdDeviation="3" in="shadowOffsetOuter1" result="shadowBlurOuter1"></feGaussianBlur>
            <feComposite in="shadowBlurOuter1" in2="SourceAlpha" operator="out" result="shadowBlurOuter1"></feComposite>
            <feColorMatrix values="0 0 0 0 0   0 0 0 0 0   0 0 0 0 0  0 0 0 0.08 0" type="matrix" in="shadowBlurOuter1"></feColorMatrix>
        </filter>
    </defs>
    <g id="Versão-atual" stroke="none" stroke-width="1" fill="none" fill-rule="evenodd">
        <g id="04.2---Detalhe-de-Saúde" transform="translate(0.000000, -111.000000)">
            <g id="Group-11" filter="url(#filter-1)" transform="translate(15.000000, 134.000000)">
                <g id="Group-8">
                    <mask id="mask-3" fill="white">
                        <use xlink:href="#path-2"></use>
                    </mask>
                    <g id="Mask">
                        <use fill="black" fill-opacity="1" filter="url(#filter-4)" xlink:href="#path-2"></use>
                        <use fill="#B861E1" fill-rule="evenodd" style="mix-blend-mode: color;" xlink:href="#path-2"></use>
                    </g>
                    <g opacity="0.200000003" mask="url(#mask-3)">
                        <g transform="translate(-71.000000, -20.000000)">
                            <g id="Group-Copy" stroke-width="1" fill="none" fill-rule="evenodd" transform="translate(0.000000, 3.840000)">
                                <g id="Group-3" transform="translate(0.000000, 0.505049)">
                                    <mask id="mask-6" fill="white">
                                        <use xlink:href="#path-5"></use>
                                    </mask>
                                    <g id="Clip-2"></g>
                                    <g id="Fill-1" mask="url(#mask-6)">
                                        <use fill="black" fill-opacity="1" filter="url(#filter-8)" xlink:href="#path-7"></use>
                                        <use fill-opacity="0.8" fill="#7A2D9F" fill-rule="evenodd" style="mix-blend-mode: saturation;" xlink:href="#path-7"></use>
                                    </g>
                                </g>
                                <path d="M56.3274289,79.1829055 C41.9917124,79.1829055 30.3281175,69.2574333 30.3281175,57.0573257 L30.3281175,49.9322299 L35.7154592,49.9322299 L35.7154592,57.0573257 C35.7154592,66.2991812 44.961677,73.8181997 56.3274289,73.8181997 C67.6931808,73.8181997 76.9393985,66.2991812 76.9393985,57.0573257 L76.9393985,22.0234971 L82.3267403,22.0234971 L82.3267403,57.0573257 C82.3267403,69.2574333 70.6639149,79.1829055 56.3274289,79.1829055" id="Fill-4" fill="#0F98B3"></path>
                                <path d="M94.2041357,175.077023 L58.8677914,175.077023 C53.7882977,175.077023 49.6323484,170.938536 49.6323484,165.880385 L49.6323484,99.459961 C49.6323484,94.4018097 53.7882977,90.2633224 58.8677914,90.2633224 L94.2041357,90.2633224 C99.2836294,90.2633224 103.439579,94.4018097 103.439579,99.459961 L103.439579,165.880385 C103.439579,170.938536 99.2836294,175.077023 94.2041357,175.077023" id="Fill-6" fill="#0F98B3"></path>
                                <path d="M96.6054278,165.880385 L96.6054278,99.459961 C96.6054278,94.4018097 92.4494785,90.2633224 87.3699848,90.2633224 L27.2711089,90.2633224 C22.1916152,90.2633224 18.0356658,94.4018097 18.0356658,99.459961 L18.0356658,145.633985 C27.6897823,158.517709 40.7017519,168.759699 55.7801519,175.077023 L87.3699848,175.077023 C92.4494785,175.077023 96.6054278,170.938536 96.6054278,165.880385" id="Fill-8" fill="#004E89"></path>
                                <path d="M56.7520284,34.9622481 C56.7520284,45.4563792 48.1776891,53.9939254 37.639279,53.9939254 L42.5140537,53.9939254 C53.0516942,53.9939254 61.6260334,45.4563792 61.6260334,34.9622481 L61.6260334,5.61347496 C59.9782765,6.17370353 58.3551473,6.78221445 56.7520284,7.43287664 L56.7520284,34.9622481 Z" id="Fill-12" fill="#0F98B3"></path>
                                <path d="M51.3646866,34.9622481 C51.3646866,42.4981271 45.2077246,48.6292195 37.639279,48.6292195 L42.5140537,48.6292195 C50.0817296,48.6292195 56.2386916,42.4981271 56.2386916,34.9622481 L56.2386916,7.64133378 C54.5886258,8.32188504 52.9631878,9.04612034 51.3646866,9.81863798 L51.3646866,34.9622481 Z" id="Fill-14" fill="#222F3A"></path>
                                <path d="M56.7520284,34.9622481 L56.7520284,7.43287664 C56.580403,7.50185143 56.4095473,7.57082622 56.2386916,7.64133378 L56.2386916,34.9622481 C56.2386916,42.4981271 50.0817296,48.6292195 42.5140537,48.6292195 L37.639279,48.6292195 L23.5298309,48.6292195 L18.6558258,48.6292195 C16.1576385,48.6292195 13.8203018,47.9509674 11.8008182,46.7845271 C11.3906106,47.5049304 10.9911777,48.2314649 10.6009803,48.963364 C14.0065499,52.0840901 18.5473094,53.9939254 23.5298309,53.9939254 L37.639279,53.9939254 C48.1776891,53.9939254 56.7520284,45.4563792 56.7520284,34.9622481" id="Fill-18" fill="#222F3A"></path>
                                <path d="M53.9839352,106.787766 L53.9839352,159.9566 C53.9839352,162.667309 58.2129985,162.671141 58.2129985,159.9566 L58.2129985,106.787766 C58.2129985,104.077823 53.9839352,104.073225 53.9839352,106.787766" id="Fill-20" fill="#238CCC"></path>
                                <path d="M78.9943615,104.085257 C73.6555058,110.903798 63.5673235,113.87278 55.2030906,113.77085 C47.7662501,113.67965 37.9197286,111.664054 33.7368425,104.798763 C32.3276678,102.484276 28.6681235,104.598736 30.0849944,106.923953 C34.8889641,114.809304 45.2973084,117.583624 53.9770856,117.947657 C63.6973894,118.356141 75.7534906,115.020827 81.9851058,107.063435 C83.6397894,104.950508 80.6675159,101.949338 78.9943615,104.085257" id="Fill-22" fill="#238CCC"></path>
                                <path d="M78.9943615,117.949037 C73.8117387,124.420405 62.7707666,124.705501 55.2030906,124.680976 C48.6667058,124.659517 37.7180881,125.075665 33.7368425,118.662543 C32.309197,116.361084 28.648883,118.474011 30.0849944,120.787732 C34.8535615,128.467692 45.9291666,128.768882 53.9770856,128.881541 C62.9223818,129.006462 75.8435362,128.595679 81.9851058,120.927215 C83.6651868,118.828848 80.6921438,115.829211 78.9943615,117.949037" id="Fill-24" fill="#238CCC"></path>
                                <path d="M78.9943615,132.915263 C76.5946856,135.812204 72.497997,135.78768 69.0139261,135.769287 C64.4062096,135.744762 59.8131159,135.268836 55.2030906,135.314819 C51.0648425,135.356204 46.9596881,135.858188 42.8306754,136.062813 C39.7560425,136.21609 35.6201033,136.577058 33.7368425,133.628003 C32.2814906,131.348003 28.6196375,133.457865 30.0849944,135.753959 C34.8743413,143.253818 46.7318805,139.7453 53.9770856,139.549105 C59.7061387,139.393529 65.4267261,140.183673 71.1511615,139.95529 C75.1170147,139.796648 79.3229894,139.107667 81.9851058,135.892675 C83.7044375,133.8173 80.7283159,130.822262 78.9943615,132.915263" id="Fill-26" fill="#238CCC"></path>
                                <path d="M33.4063676,157.901841 C38.6297803,151.347703 49.4652638,150.502378 57.1984081,150.542231 C63.927198,150.577484 74.6295372,150.664852 78.6638866,157.188335 C80.0884537,159.492859 83.747998,157.379165 82.3157347,155.063145 C77.5425499,147.342567 66.6054765,146.510271 58.4236435,146.347031 C49.312879,146.165397 36.5818208,147.188523 30.4156233,154.923663 C28.7409296,157.025094 31.7147423,160.024731 33.4063676,157.901841" id="Fill-28" fill="#238CCC"></path>
                                <path d="M88.2057924,19.3590776 C88.2057924,23.7956894 84.5947342,27.3923415 80.1394025,27.3923415 C75.6833013,27.3923415 72.0714734,23.7956894 72.0714734,19.3590776 C72.0714734,14.9224659 75.6833013,11.3258138 80.1394025,11.3258138 C84.5947342,11.3258138 88.2057924,14.9224659 88.2057924,19.3590776" id="Fill-30" fill="#0F98B3"></path>
                                <path d="M164.55597,145.014284 L164.55597,50.0927113 L164.55597,45.3027953 C164.55597,40.2438776 160.40079,36.1061566 155.320527,36.1061566 L83.1178329,36.1061566 C78.0383392,36.1061566 73.8823899,40.2438776 73.8823899,45.3027953 L73.8823899,50.0927113 L73.8823899,155.406486 L73.8823899,159.941195 C73.8823899,164.999347 78.0383392,169.137834 83.1178329,169.137834 L138.074106,169.137834 C148.426268,162.912476 157.430056,154.692214 164.55597,145.014284" id="Fill-32" fill="#0F98B3"></path>
                                <path d="M148.63599,169.137527 L76.4332962,169.137527 C71.3538025,169.137527 67.1978532,164.99904 67.1978532,159.940889 L67.1978532,50.0924047 C67.1978532,45.0342534 71.3538025,40.8957661 76.4332962,40.8957661 L148.63599,40.8957661 C153.715484,40.8957661 157.871433,45.0342534 157.871433,50.0924047 L157.871433,159.940889 C157.871433,164.99904 153.715484,169.137527 148.63599,169.137527" id="Fill-34" fill="#CC1D19"></path>
                                <path d="M51.4534238,79.1829055 C37.1169377,79.1829055 25.4541124,69.2574333 25.4541124,57.0573257 L25.4541124,49.9322299 L30.8414542,49.9322299 L30.8414542,57.0573257 C30.8414542,66.2991812 40.0876719,73.8181997 51.4534238,73.8181997 C62.8191757,73.8181997 72.0653934,66.2991812 72.0653934,57.0573257 L72.0653934,22.0234971 L77.4527352,22.0234971 L77.4527352,57.0573257 C77.4527352,69.2574333 65.7899099,79.1829055 51.4534238,79.1829055" id="Fill-36" fill="#222F3A"></path>
                                <path d="M148.63599,164.603201 L76.4332962,164.603201 C71.3538025,164.603201 67.1978532,160.464714 67.1978532,155.406563 L67.1978532,43.7379106 C67.1978532,38.6797593 71.3538025,34.5412719 76.4332962,34.5412719 L148.63599,34.5412719 C153.715484,34.5412719 157.871433,38.6797593 157.871433,43.7379106 L157.871433,155.406563 C157.871433,160.464714 153.715484,164.603201 148.63599,164.603201" id="Fill-38" fill="#FA6B64"></path>
                                <path d="M148.63599,164.603201 L76.4332962,164.603201 C71.3538025,164.603201 67.1978532,160.464714 67.1978532,155.406563 L67.1978532,47.6817358 C67.1978532,42.6228182 71.3538025,38.4850971 76.4332962,38.4850971 L148.63599,38.4850971 C153.715484,38.4850971 157.871433,42.6228182 157.871433,47.6817358 L157.871433,155.406563 C157.871433,160.464714 153.715484,164.603201 148.63599,164.603201" id="Fill-40" fill="#F44338"></path>
                                <path d="M144.372294,157.705722 L80.8493772,157.705722 C77.5215392,157.705722 74.7993924,154.994247 74.7993924,151.681158 L74.7993924,55.2865896 C74.7993924,51.9735005 77.5215392,49.2620249 80.8493772,49.2620249 L144.372294,49.2620249 C147.700132,49.2620249 150.422278,51.9735005 150.422278,55.2865896 L150.422278,151.681158 C150.422278,154.994247 147.700132,157.705722 144.372294,157.705722" id="Fill-42" fill="#98A3AF"></path>
                                <path d="M144.372294,150.808243 L80.8493772,150.808243 C77.5215392,150.808243 74.7993924,148.096768 74.7993924,144.783679 L74.7993924,48.3891106 C74.7993924,45.0760215 77.5215392,42.3645459 80.8493772,42.3645459 L144.372294,42.3645459 C147.700132,42.3645459 150.422278,45.0760215 150.422278,48.3891106 L150.422278,144.783679 C150.422278,148.096768 147.700132,150.808243 144.372294,150.808243" id="Fill-44" fill="#F1F2F4"></path>
                                <path d="M108.548087,66.2501324 L83.4069023,66.2501324 C81.9961884,66.2501324 80.841758,65.1005526 80.841758,63.6957661 C80.841758,62.2902131 81.9961884,61.1406333 83.4069023,61.1406333 L108.548087,61.1406333 C109.958801,61.1406333 111.113231,62.2902131 111.113231,63.6957661 C111.113231,65.1005526 109.958801,66.2501324 108.548087,66.2501324" id="Fill-46" fill="#BCC1C6"></path>
                                <path d="M108.548087,78.2571106 L83.4069023,78.2571106 C81.9961884,78.2571106 80.841758,77.1075308 80.841758,75.7027442 C80.841758,74.2971913 81.9961884,73.1476114 83.4069023,73.1476114 L108.548087,73.1476114 C109.958801,73.1476114 111.113231,74.2971913 111.113231,75.7027442 C111.113231,77.1075308 109.958801,78.2571106 108.548087,78.2571106" id="Fill-48" fill="#BCC1C6"></path>
                                <path d="M140.479785,90.2637055 L115.338601,90.2637055 C113.927887,90.2637055 112.773456,89.1141257 112.773456,87.7093392 C112.773456,86.3037862 113.927887,85.1542064 115.338601,85.1542064 L140.479785,85.1542064 C141.890499,85.1542064 143.04493,86.3037862 143.04493,87.7093392 C143.04493,89.1141257 141.890499,90.2637055 140.479785,90.2637055" id="Fill-50" fill="#BCC1C6"></path>
                                <path d="M140.479785,102.294978 L115.338601,102.294978 C113.927887,102.294978 112.773456,101.145398 112.773456,99.7406118 C112.773456,98.3350588 113.927887,97.185479 115.338601,97.185479 L140.479785,97.185479 C141.890499,97.185479 143.04493,98.3350588 143.04493,99.7406118 C143.04493,101.145398 141.890499,102.294978 140.479785,102.294978" id="Fill-52" fill="#BCC1C6"></path>
                                <path d="M140.479785,128.327443 L83.4070562,128.327443 C81.9963423,128.327443 80.8419119,127.177864 80.8419119,125.773077 C80.8419119,124.367524 81.9963423,123.217944 83.4070562,123.217944 L140.479785,123.217944 C141.890499,123.217944 143.04493,124.367524 143.04493,125.773077 C143.04493,127.177864 141.890499,128.327443 140.479785,128.327443" id="Fill-54" fill="#BCC1C6"></path>
                                <path d="M108.548087,140.359099 L83.4069023,140.359099 C81.9961884,140.359099 80.841758,139.209519 80.841758,137.804733 C80.841758,136.39918 81.9961884,135.2496 83.4069023,135.2496 L108.548087,135.2496 C109.958801,135.2496 111.113231,136.39918 111.113231,137.804733 C111.113231,139.209519 109.958801,140.359099 108.548087,140.359099" id="Fill-56" fill="#BCC1C6"></path>
                                <path d="M128.454469,114.326634 L115.338601,114.326634 C113.927887,114.326634 112.773456,113.177054 112.773456,111.772268 C112.773456,110.366715 113.927887,109.217135 115.338601,109.217135 L128.454469,109.217135 C129.865183,109.217135 131.019613,110.366715 131.019613,111.772268 C131.019613,113.177054 129.865183,114.326634 128.454469,114.326634" id="Fill-58" fill="#BCC1C6"></path>
                                <path d="M126.772464,53.9879476 L98.2965144,53.9879476 C94.9101853,53.9879476 92.1395524,51.228956 92.1395524,47.8568551 L92.1395524,37.6386232 C92.1395524,34.2665224 94.9101853,31.5075308 98.2965144,31.5075308 L126.772464,31.5075308 C130.158023,31.5075308 132.929426,34.2665224 132.929426,37.6386232 L132.929426,47.8568551 C132.929426,51.228956 130.158023,53.9879476 126.772464,53.9879476" id="Fill-60" fill="#BCC1C6"></path>
                                <path d="M126.772464,49.2620249 L98.2965144,49.2620249 C94.9101853,49.2620249 92.1395524,46.5030333 92.1395524,43.1309324 L92.1395524,37.63824 C92.1395524,34.2661392 94.9101853,31.5071476 98.2965144,31.5071476 L126.772464,31.5071476 C130.158023,31.5071476 132.929426,34.2661392 132.929426,37.63824 L132.929426,43.1309324 C132.929426,46.5030333 130.158023,49.2620249 126.772464,49.2620249" id="Fill-62" fill="#98A2AD"></path>
                                <path d="M121.781938,33.2319005 C121.781938,38.2754904 117.676014,42.3649291 112.610374,42.3649291 C107.545503,42.3649291 103.439579,38.2754904 103.439579,33.2319005 C103.439579,28.1875442 107.545503,24.0988719 112.610374,24.0988719 C117.676014,24.0988719 121.781938,28.1875442 121.781938,33.2319005" id="Fill-64" fill="#98A2AD"></path>
                                <path d="M115.819613,31.5075308 C115.819613,33.1828518 114.456616,34.5408887 112.773456,34.5408887 C111.091066,34.5408887 109.727299,33.1828518 109.727299,31.5075308 C109.727299,29.8314434 111.091066,28.4741728 112.773456,28.4741728 C114.456616,28.4741728 115.819613,29.8314434 115.819613,31.5075308" id="Fill-66" fill="#199BFA"></path>
                                <path d="M101.646287,115.898339 L85.5873904,115.898339 C82.9768385,115.898339 80.8419119,113.771617 80.8419119,111.172034 L80.8419119,90.4795966 C80.8419119,87.8807798 82.9768385,85.7540571 85.5873904,85.7540571 L101.646287,85.7540571 C104.256838,85.7540571 106.391765,87.8807798 106.391765,90.4795966 L106.391765,111.172034 C106.391765,113.771617 104.256838,115.898339 101.646287,115.898339" id="Fill-68" fill="#BCC1C6"></path>
                                <path d="M117.586584,68.9605351 C120.00781,71.2390024 122.430574,73.5167032 124.851799,75.7951704 C125.705308,76.5975771 127.286878,76.7631166 128.118068,75.7951704 C131.843799,71.4520578 135.570301,67.1097116 139.297572,62.766599 C141.217774,60.5287503 137.966129,57.260878 136.032073,59.5155872 C132.305572,63.8579334 128.57907,68.2010461 124.851799,72.5441587 L128.118068,72.5441587 C125.695303,70.2656914 123.274078,67.9872242 120.851313,65.708757 C118.692529,63.6778326 115.420873,66.9234797 117.586584,68.9605351" id="Fill-70" fill="#BCC1C6"></path>
                                <path d="M101.218686,38.4847139 L98.5735008,38.4847139 C97.7276881,38.4847139 97.0342603,37.7949661 97.0342603,36.9519408 C97.0342603,36.1089156 97.7276881,35.4191677 98.5735008,35.4191677 L101.218686,35.4191677 C102.065268,35.4191677 102.757926,36.1089156 102.757926,36.9519408 C102.757926,37.7949661 102.065268,38.4847139 101.218686,38.4847139" id="Fill-74" fill="#BCC1C6"></path>
                                <path d="M126.902453,38.4847139 L124.258037,38.4847139 C123.411455,38.4847139 122.718797,37.7949661 122.718797,36.9519408 C122.718797,36.1089156 123.411455,35.4191677 124.258037,35.4191677 L126.902453,35.4191677 C127.749805,35.4191677 128.441693,36.1089156 128.441693,36.9519408 C128.441693,37.7949661 127.749805,38.4847139 126.902453,38.4847139" id="Fill-76" fill="#BCC1C6"></path>
                                <path d="M83.3317873,19.3590776 C83.3317873,23.7956894 79.7199595,27.3923415 75.2646278,27.3923415 C70.8092962,27.3923415 67.1974684,23.7956894 67.1974684,19.3590776 C67.1974684,14.9224659 70.8092962,11.3258138 75.2646278,11.3258138 C79.7199595,11.3258138 83.3317873,14.9224659 83.3317873,19.3590776" id="Fill-78" fill="#222F3A"></path>
                                <path d="M79.7820678,19.3590776 C79.7820678,21.8437029 77.7595058,23.8577667 75.264397,23.8577667 C72.7700577,23.8577667 70.7474957,21.8437029 70.7474957,19.3590776 C70.7474957,16.8744524 72.7700577,14.8603886 75.264397,14.8603886 C77.7595058,14.8603886 79.7820678,16.8744524 79.7820678,19.3590776" id="Fill-80" fill="#BCC1C6"></path>
                                <path d="M77.0718501,19.3590776 C77.0718501,20.353081 76.2622096,21.1585533 75.2640122,21.1585533 C74.2658147,21.1585533 73.4577134,20.353081 73.4577134,19.3590776 C73.4577134,18.3650743 74.2658147,17.559602 75.2640122,17.559602 C76.2622096,17.559602 77.0718501,18.3650743 77.0718501,19.3590776" id="Fill-82" fill="#222F3A"></path>
                            </g>
                            <circle id="Oval" fill="#000000" fill-rule="nonzero" style="mix-blend-mode: color;" cx="96" cy="96" r="96"></circle>
                        </g>
                    </g>
                </g>
            </g>
        </g>
    </g>
</svg>