<?xml version="1.0" encoding="UTF-8"?>
<svg width="15px" height="29px" viewBox="0 0 15 29" version="1.1" xmlns="http://www.w3.org/2000/svg" xmlns:xlink="http://www.w3.org/1999/xlink">
    <!-- Generator: Sketch 52.5 (67469) - http://www.bohemiancoding.com/sketch -->
    <title>icon termometro</title>
    <desc>Created with Sketch.</desc>
    <g id="Versão-atual" stroke="none" stroke-width="1" fill="none" fill-rule="evenodd">
        <g id="04.2---Detalhe-de-Saúde" transform="translate(-39.000000, -734.000000)" fill="#0089EC">
            <g id="Group-23-Copy-14" transform="translate(14.000000, 718.000000)">
                <g id="Card">
                    <g id="icon-termometro" transform="translate(25.000000, 16.000000)">
                        <g id="#000000ff">
                            <path d="M5.39806452,0.0852941176 C6,0.0146218487 6.60774194,0.0628739496 7.21209677,0.0487394958 C7.67516129,0.0541008403 8.14403226,0.0214453782 8.60080645,0.115512605 C9.30725806,0.282689076 9.91741935,0.808588235 10.1864516,1.48801681 C10.3006452,1.77363025 10.361129,2.08117647 10.3562903,2.38969748 C10.3553226,6.28934454 10.3562903,10.1889916 10.3558065,14.0891261 C10.3630645,14.4961008 10.3209677,14.9137983 10.4443548,15.3081008 C10.5851613,15.8047563 10.875,16.2487731 11.2398387,16.6079832 C11.4512903,16.8161008 11.6796774,17.0066723 11.8829032,17.223563 C13.1390323,18.5297815 13.8474194,20.3541008 13.8009677,22.1725714 C13.7854839,23.2404538 13.5004839,24.2976134 13.0233871,25.2490084 C12.3285484,26.5420672 11.246129,27.6367563 9.92225806,28.2708571 C9.16596774,28.6529748 8.33129032,28.8664538 7.49080645,28.9458992 C7.13806452,28.9575966 6.78483871,28.9488235 6.4316129,28.9507731 C4.62193548,28.8352605 2.86983871,27.9579496 1.69935484,26.5605882 C1.22516129,26.004958 0.813870968,25.3859664 0.549193548,24.7006891 C0.218709677,23.8852773 0.0246774194,23.009916 0.0198387097,22.1272437 C-0.0203225806,20.146958 0.841935484,18.1695966 2.31580645,16.8575294 C2.78419355,16.453479 3.18919355,15.9490252 3.36629032,15.3451429 C3.45629032,15.063916 3.47322581,14.7670924 3.46548387,14.4736807 C3.465,10.5915798 3.46548387,6.70947899 3.465,2.82737815 C3.46693548,2.46134454 3.44177419,2.08653782 3.55209677,1.73220168 C3.77903226,0.884134454 4.53145161,0.202268908 5.39806452,0.0852941176 Z M5.76387097,2.36094118 C5.75951613,6.31858824 5.7633871,10.2767227 5.76193548,14.2343697 C5.75951613,14.5599496 5.77451613,14.8865042 5.73435484,15.2101345 C5.65693548,15.8934622 5.41112903,16.5490084 5.07,17.1421681 C4.76516129,17.6617311 4.35774194,18.1125714 3.91693548,18.518084 C3.55403226,18.8534118 3.21919355,19.2252941 2.96177419,19.6503025 C2.50645161,20.4398824 2.26741935,21.362521 2.32209677,22.2773613 C2.36129032,23.0001681 2.57177419,23.7146891 2.92790323,24.3429412 C3.39145161,25.1237479 4.06645161,25.7856303 4.88419355,26.1809076 C6.3333871,26.9129748 8.17112903,26.7847899 9.50225806,25.849479 C10.1012903,25.4395798 10.5914516,24.8776134 10.9485484,24.2449748 C11.4754839,23.2565378 11.6467742,22.074605 11.3864516,20.9808908 C11.2224194,20.3077983 10.9364516,19.6551765 10.4854839,19.1263529 C10.1545161,18.7110924 9.72870968,18.388437 9.37983871,17.9902353 C8.54322581,17.0695462 8.02403226,15.8301008 8.05887097,14.5731092 C8.05983871,10.5033613 8.05887097,6.43312605 8.05935484,2.36289076 C7.29435484,2.36094118 6.52935484,2.36435294 5.76387097,2.36094118 Z" id="Shape" fill-rule="nonzero"></path>
                            <path d="M12.6469355,2.36435294 C12.9648387,2.3589916 13.2827419,2.36435294 13.6006452,2.36191597 C13.8309677,2.35996639 14.0719355,2.36581513 14.2829032,2.47060504 C14.7377419,2.67677311 15.0275806,3.20803361 14.94,3.70615126 C14.8519355,4.21109244 14.4101613,4.64487395 13.8924194,4.66778151 C13.4554839,4.68191597 13.0175806,4.67947899 12.581129,4.66973109 C11.9733871,4.65315966 11.4595161,4.06682353 11.5030645,3.46001681 C11.5253226,2.86978151 12.0556452,2.35119328 12.6469355,2.36435294 Z" id="Path"></path>
                            <path d="M12.6469355,6.99168067 C13.0616129,6.99168067 13.4772581,6.98144538 13.8914516,6.99752941 C14.4701613,7.02287395 14.9593548,7.56388235 14.9525806,8.14193277 C14.9646774,8.72242017 14.4745161,9.26830252 13.8948387,9.29510924 C13.4545161,9.3092437 13.0127419,9.30729412 12.5724194,9.29657143 C11.9690323,9.27512605 11.4614516,8.69268908 11.5030645,8.08978151 C11.523871,7.49857143 12.0551613,6.97852101 12.6469355,6.99168067 Z" id="Path"></path>
                            <path d="M12.6440323,11.6194958 C13.0587097,11.618521 13.4743548,11.6087731 13.8885484,11.6248571 C14.4343548,11.6477647 14.9008065,12.1273613 14.9487097,12.667395 C15.0004839,13.1504034 14.7004839,13.6455966 14.2587097,13.8332437 C13.9601613,13.9697143 13.623871,13.9214622 13.3064516,13.9307227 C13.0166129,13.9234118 12.7243548,13.9502185 12.4364516,13.9073277 C11.8751613,13.8137479 11.4459677,13.2415462 11.5054839,12.6727563 C11.5509677,12.1000672 12.0677419,11.6082857 12.6440323,11.6194958 Z" id="Path"></path>
                            <path d="M6.40596774,19.7711765 C6.93290323,19.6600504 7.50580645,19.7190252 7.98,19.9851429 C8.55387097,20.2741681 8.98064516,20.8327227 9.13645161,21.4570756 C9.30677419,22.1145714 9.16983871,22.849563 8.76387097,23.3939832 C8.44112903,23.8526218 7.93741935,24.1679664 7.39548387,24.2898151 C6.84290323,24.4043529 6.24387097,24.322958 5.75854839,24.0256471 C4.87741935,23.5406891 4.41870968,22.4177311 4.68774194,21.4453782 C4.88951613,20.6197311 5.5833871,19.952 6.40596774,19.7711765 Z" id="Path"></path>
                        </g>
                    </g>
                </g>
            </g>
        </g>
    </g>
</svg>