<svg width="30" height="30" xmlns="http://www.w3.org/2000/svg"><defs><filter x="-33.3%" y="-33.3%" width="166.7%" height="166.7%" filterUnits="objectBoundingBox" id="a"><feOffset dy="1" in="SourceAlpha" result="shadowOffsetOuter1"/><feGaussianBlur stdDeviation="1.5" in="shadowOffsetOuter1" result="shadowBlurOuter1"/><feColorMatrix values="0 0 0 0 0 0 0 0 0 0 0 0 0 0 0 0 0 0 0.134397645 0" in="shadowBlurOuter1" result="shadowMatrixOuter1"/><feMerge><feMergeNode in="shadowMatrixOuter1"/><feMergeNode in="SourceGraphic"/></feMerge></filter></defs><g filter="url(#a)" transform="translate(3 2)" fill="none" fill-rule="evenodd"><circle fill="#DA3641" cx="12" cy="12" r="11"/><circle fill-opacity=".314" fill="#000" cx="7.714" cy="10.286" r="1.714"/><circle fill-opacity=".314" fill="#000" cx="16.286" cy="10.286" r="1.714"/><path d="M15.282 16.804a.857.857 0 0 1-1.247.135 3.45 3.45 0 0 0-4.07 0 .857.857 0 1 1-1.073-1.335 5.118 5.118 0 0 1 6.216 0c.38.283.457.82.174 1.2z" fill-opacity=".314" fill="#000"/><path d="M12 0c6.625.007 11.993 5.376 12 12 0 6.627-5.373 12-12 12S0 18.627 0 12 5.373 0 12 0zm0 1.714C6.32 1.714 1.714 6.32 1.714 12c0 5.68 4.605 10.286 10.286 10.286C17.678 22.28 22.28 17.678 22.286 12 22.286 6.32 17.68 1.714 12 1.714z" fill="#FFF" fill-rule="nonzero"/></g></svg>