<?xml version="1.0" encoding="UTF-8"?>
<svg width="60px" height="60px" viewBox="0 0 60 60" version="1.1" xmlns="http://www.w3.org/2000/svg" xmlns:xlink="http://www.w3.org/1999/xlink">
    <!-- Generator: Sketch 52.2 (67145) - http://www.bohemiancoding.com/sketch -->
    <title>Group 16</title>
    <desc>Created with Sketch.</desc>
    <g id="Versão-atual" stroke="none" stroke-width="1" fill="none" fill-rule="evenodd">
        <g id="01.5---Float" transform="translate(-300.000000, -175.000000)">
            <g id="Group-34" transform="translate(123.000000, 19.000000)">
                <g id="Group-33" transform="translate(0.000000, 156.000000)">
                    <g id="Group-16" transform="translate(177.000000, 0.000000)">
                        <g id="smile">
                            <g id="Group-4">
                                <circle id="Oval-5" fill="#FF9F2F" cx="30" cy="30" r="30"></circle>
                                <g id="Group-2" transform="translate(14.000000, 19.000000)" fill="#000000" fill-opacity="0.313717165">
                                    <circle id="Oval-path" cx="4.84615385" cy="4.98461538" r="4.46153846"></circle>
                                    <circle id="Oval-path" cx="27.1538462" cy="4.98461538" r="4.46153846"></circle>
                                    <path d="M24.0368588,16.6397721 C23.3051688,15.5965109 21.9170735,15.3818924 20.9365544,16.1605404 C20.8941094,16.1942385 20.8529623,16.2294558 20.8128537,16.2663304 C17.680099,18.7008828 13.4274186,18.7008828 10.2946639,16.2663304 C9.36905072,15.4150381 7.97005217,15.5234522 7.17008667,16.5082941 C6.36999138,17.493136 6.47188541,18.9816546 7.39749857,19.8328088 C7.43747738,19.8696834 7.4787542,19.9049007 7.52119923,19.9385989 C12.262971,23.794826 18.8445466,23.794826 23.5863184,19.9385989 C24.5669673,19.1599509 24.7686786,17.6830333 24.0368588,16.6397721 Z" id="Shape" transform="translate(15.553846, 19.261538) scale(1, -1) translate(-15.553846, -19.261538) "></path>
                                </g>
                            </g>
                        </g>
                    </g>
                </g>
            </g>
        </g>
    </g>
</svg>