<?xml version="1.0" encoding="utf-8"?>
<!-- Generator: Adobe Illustrator 22.0.0, SVG Export Plug-In . SVG Version: 6.00 Build 0)  -->
<svg version="1.1" id="Camada_1" xmlns="http://www.w3.org/2000/svg" xmlns:xlink="http://www.w3.org/1999/xlink" x="0px" y="0px"
	 viewBox="0 0 28 32" style="enable-background:new 0 0 28 32;" xml:space="preserve">
<style type="text/css">
	.st0{fill:#0077D9;}
	.st1{fill:#FFFFFF;}
</style>
<path id="Combined-Shape-Copy-3" class="st0" d="M0,13.7C0,5.5,5.6,0,14,0s14,6.9,14,13.7c0,4.3-4.1,10.1-12.2,17.6
	c-1,1-2.6,1-3.7,0.1C4,24.7,0,18.8,0,13.7z"/>
<path id="Combined-Shape" class="st1" d="M18.7,6c0.1,0,0.3,0.1,0.4,0.1l0,0l2.5,2c0.2,0.1,0.3,0.3,0.3,0.6c0,0.4-0.3,0.7-0.7,0.7
	l0,0h-0.7v11.9c0,0.4-0.3,0.7-0.7,0.7l0,0H18c-0.4,0-0.7-0.3-0.7-0.7l0,0V18c0-0.7-0.5-1.3-1-1.3c-0.6,0-1,0.6-1,1.3l0,0v3.3
	c0,0.4-0.3,0.7-0.7,0.7l0,0H8.1c-0.4,0-0.7-0.3-0.7-0.7l0,0V9.4H6.7C6.4,9.4,6.1,9.2,6,9C5.9,8.7,6,8.4,6.2,8.2l0,0l2.6-2.1
	C9,6.1,9.1,6,9.3,6l0,0H18.7z M19.2,9.4H8.7v11.2h5.2V18c0-1.4,1.1-2.6,2.4-2.6c1.3,0,2.4,1.2,2.4,2.6l0,0v2.6h0.6V9.4z M12.1,16.9
	c0.4,0,0.7,0.3,0.7,0.7c0,0.4-0.3,0.7-0.7,0.7l0,0h-1.7c-0.4,0-0.7-0.3-0.7-0.7c0-0.4,0.3-0.7,0.7-0.7l0,0H12.1z M12.1,14
	c0.4,0,0.7,0.3,0.7,0.7c0,0.4-0.3,0.7-0.7,0.7l0,0h-1.7c-0.4,0-0.7-0.3-0.7-0.7c0-0.4,0.3-0.7,0.7-0.7l0,0H12.1z M16.1,10.2
	c0.4,0,0.7,0.3,0.7,0.7l0,0v0.7h0.5c0.4,0,0.7,0.3,0.7,0.7c0,0.4-0.3,0.7-0.7,0.7l0,0h-0.5v0.7c0,0.4-0.3,0.7-0.7,0.7
	c-0.4,0-0.7-0.3-0.7-0.7l0,0v-0.7h-0.5c-0.4,0-0.7-0.3-0.7-0.7c0-0.4,0.3-0.7,0.7-0.7l0,0h0.5v-0.7C15.5,10.5,15.8,10.2,16.1,10.2z
	 M12.1,11.1c0.4,0,0.7,0.3,0.7,0.7c0,0.4-0.3,0.7-0.7,0.7l0,0h-1.7c-0.4,0-0.7-0.3-0.7-0.7c0-0.4,0.3-0.7,0.7-0.7l0,0H12.1z
	 M18.4,7.3H9.5L8.6,8.1h10.8L18.4,7.3z"/>
</svg>
