<?xml version="1.0" encoding="UTF-8"?>
<svg width="36px" height="36px" viewBox="0 0 36 36" version="1.1" xmlns="http://www.w3.org/2000/svg" xmlns:xlink="http://www.w3.org/1999/xlink">
    <!-- Generator: Sketch 50.2 (55047) - http://www.bohemiancoding.com/sketch -->
    <title>ícone</title>
    <desc>Created with Sketch.</desc>
    <defs></defs>
    <g id="ícone" stroke="none" stroke-width="1" fill="none" fill-rule="evenodd">
        <path d="M18.0000016,12.7954524 L12.3750006,12.7954524 L12.3750006,18.5909082 L18.0000016,18.5909082 L18.0000016,12.7954524 Z M19.8749998,22.4545442 L19.8749998,24.3863639 L10.4999992,24.3863639 L10.4999992,22.4545442 L19.8749998,22.4545442 Z M19.8749998,10.8636361 L19.8749998,20.5227279 L10.4999992,20.5227279 L10.4999992,10.8636361 L19.8749998,10.8636361 Z M29.2500004,22.4545442 L29.2500004,24.3863639 L21.7500012,24.3863639 L21.7500012,22.4545442 L29.2500004,22.4545442 Z M29.2500004,18.5909082 L29.2500004,20.5227279 L21.7500012,20.5227279 L21.7500012,18.5909082 L29.2500004,18.5909082 Z M29.2500004,14.7272721 L29.2500004,16.6590918 L21.7500012,16.6590918 L21.7500012,14.7272721 L29.2500004,14.7272721 Z M29.2500004,10.8636361 L29.2500004,12.7954524 L21.7500012,12.7954524 L21.7500012,10.8636361 L29.2500004,10.8636361 Z M6.74999959,25.3522725 L6.74999959,10.8636361 L4.87500012,10.8636361 L4.87500012,25.3522725 C4.87500012,25.6138744 4.96777255,25.840257 5.15332035,26.0314275 C5.33886815,26.2225979 5.55859246,26.3181816 5.81250018,26.3181816 C6.06640758,26.3181816 6.28613255,26.2225979 6.47168068,26.0314275 C6.65722881,25.840257 6.74999959,25.6138744 6.74999959,25.3522725 Z M31.1250018,25.3522725 L31.1250018,8.93181634 L8.62500103,8.93181634 L8.62500103,25.3522725 C8.62500103,25.6843055 8.57129024,26.0062721 8.46386868,26.3181816 L30.1874995,26.3181816 C30.4414092,26.3181816 30.6611315,26.2225979 30.8466797,26.0314275 C31.0322278,25.840257 31.1250018,25.6138744 31.1250018,25.3522725 Z M33,7 L33,25.3522725 C33,26.157201 32.7265669,26.8413797 32.1796875,27.4048295 C31.6328114,27.9682793 30.9687553,28.25 30.1874995,28.25 L5.81250018,28.25 C5.03124603,28.25 4.36719026,27.9682793 3.82031251,27.4048295 C3.27343477,26.8413797 3,26.157201 3,25.3522725 L3,8.93181634 L6.74999959,8.93181634 L6.74999959,7 L33,7 Z" id="Fill-1" fill="#FFFFFF"></path>
    </g>
</svg>