<?xml version="1.0" encoding="UTF-8"?>
<svg width="24px" height="24px" viewBox="0 0 24 24" version="1.1" xmlns="http://www.w3.org/2000/svg" xmlns:xlink="http://www.w3.org/1999/xlink">
    <!-- Generator: Sketch 52.2 (67145) - http://www.bohemiancoding.com/sketch -->
    <title></title>
    <desc>Created with Sketch.</desc>
    <g id="Versão-atual" stroke="none" stroke-width="1" fill="none" fill-rule="evenodd">
        <g id="01---Mapa" transform="translate(-318.000000, -666.000000)" fill="#FFFFFF">
            <g id="Add" transform="translate(300.000000, 648.000000)">
                <path d="M39.34375,28.1428571 C39.8467287,28.1428571 40.2723197,28.3266351 40.6205357,28.6941964 C40.9687517,29.0617578 41.1428571,29.4970213 41.1428571,30 C41.1428571,30.5029787 40.9687517,30.9382422 40.6205357,31.3058036 C40.2723197,31.6733649 39.8467287,31.8571429 39.34375,31.8571429 L31.8571429,31.8571429 L31.8571429,39.34375 C31.8571429,39.8467287 31.6733649,40.2723197 31.3058036,40.6205357 C30.9382422,40.9687517 30.5029787,41.1428571 30,41.1428571 C29.4970213,41.1428571 29.0617578,40.9687517 28.6941964,40.6205357 C28.3266351,40.2723197 28.1428571,39.8467287 28.1428571,39.34375 L28.1428571,31.8571429 L20.65625,31.8571429 C20.1532713,31.8571429 19.7276803,31.6733649 19.3794643,31.3058036 C19.0312483,30.9382422 18.8571429,30.5029787 18.8571429,30 C18.8571429,29.4970213 19.0312483,29.0617578 19.3794643,28.6941964 C19.7276803,28.3266351 20.1532713,28.1428571 20.65625,28.1428571 L28.1428571,28.1428571 L28.1428571,20.65625 C28.1428571,20.1532713 28.3266351,19.7276803 28.6941964,19.3794643 C29.0617578,19.0312483 29.4970213,18.8571429 30,18.8571429 C30.5029787,18.8571429 30.9382422,19.0312483 31.3058036,19.3794643 C31.6733649,19.7276803 31.8571429,20.1532713 31.8571429,20.65625 L31.8571429,28.1428571 L39.34375,28.1428571 Z" id=""></path>
            </g>
        </g>
    </g>
</svg>